<svg width="1440" height="749" viewBox="0 0 1440 749" version="1.1" xmlns="http://www.w3.org/2000/svg" xmlns:xlink="http://www.w3.org/1999/xlink">
<title>logo</title>
<desc>Created using Figma</desc>
<g id="Canvas" transform="translate(-7382 -9733)">
<clipPath id="clip-0" clip-rule="evenodd">
<path d="M 7382 9733L 8822 9733L 8822 10482L 7382 10482L 7382 9733Z" fill="#FFFFFF"/>
</clipPath>
<g id="logo" clip-path="url(#clip-0)">
<path d="M 7382 9733L 8822 9733L 8822 10482L 7382 10482L 7382 9733Z" fill="#333333"/>
<g id="Group 54">
<g id="d" filter="url(#filter0_d)">
<use xlink:href="#path0_fill" transform="translate(8148 10036)" fill="#FFFFFF"/>
</g>
<g id="Group 53">
<g id="Group 50">
<g id="Rectangle 3.8">
<use xlink:href="#path1_fill" transform="matrix(0.889918 -0.45612 0.297864 0.954608 8109.09 10107.1)" fill="#62B208"/>
</g>
<g id="Rectangle 3.9">
<use xlink:href="#path2_fill" transform="matrix(0.881891 -0.471453 0.309475 0.950908 8166.33 10077.9)" fill="#5AA308"/>
</g>
<g id="Rectangle 3.10">
<use xlink:href="#path2_fill" transform="matrix(0.881891 -0.471453 0.309475 0.950908 8122.78 10098.9)" fill="#5AA308"/>
</g>
<g id="Rectangle 3.4">
<use xlink:href="#path3_fill" transform="matrix(0.891646 -0.452734 0.300423 0.953806 8239 10112.4)" fill="#62B208"/>
</g>
<g id="Rectangle 3.5">
<use xlink:href="#path4_fill" transform="matrix(0.883721 -0.468014 0.312112 0.950045 8277.9 10092.8)" fill="#5AA308"/>
</g>
<g id="Rectangle 3.7">
<use xlink:href="#path4_fill" transform="matrix(0.883721 -0.468014 0.312112 0.950045 8249.19 10106.5)" fill="#5AA308"/>
</g>
<g id="Rectangle 3">
<use xlink:href="#path5_fill" transform="translate(7945 10107.8)" fill="#62B208"/>
</g>
<g id="Rectangle 3.6">
<use xlink:href="#path6_fill" transform="translate(8265.4 10107.6)" fill="#5AA308"/>
</g>
<g id="Rectangle 3.1">
<use xlink:href="#path6_fill" transform="translate(8322.35 10106.6)" fill="#5AA308"/>
</g>
<g id="Rectangle 3.2">
<use xlink:href="#path6_fill" transform="translate(8176 10106.8)" fill="#5AA308"/>
</g>
<g id="Rectangle 3.3">
<use xlink:href="#path6_fill" transform="translate(8076.51 10107.6)" fill="#5AA308"/>
</g>
</g>
<g id="Ellipse">
<use xlink:href="#path7_fill" transform="matrix(-1 1.22465e-16 -1.22465e-16 -1 8013 10123.6)" fill="#5AA10A"/>
</g>
<g id="Ellipse">
<use xlink:href="#path8_fill" transform="matrix(-0.707107 0.707107 -0.707107 -0.707107 8236.61 10117.6)" fill="#5AA10A"/>
</g>
<g id="Ellipse">
<use xlink:href="#path9_fill" transform="matrix(-1 1.22465e-16 -1.22465e-16 -1 8181 10077)" fill="#5AA10A"/>
</g>
<g id="Ellipse">
<use xlink:href="#path10_fill" transform="matrix(0.965926 -0.258819 0.258819 0.965926 8125.07 10090)" fill="#5AA10A"/>
</g>
<g id="Ellipse">
<use xlink:href="#path8_fill" transform="matrix(-5.55112e-17 -1 1 -5.55112e-17 8176 10075.3)" fill="#5AA10A"/>
</g>
<g id="Ellipse">
<use xlink:href="#path8_fill" transform="matrix(0.5 -0.866025 0.866025 0.5 8333 10114.2)" fill="#5AA10A"/>
</g>
<g id="Ellipse">
<use xlink:href="#path11_fill" transform="matrix(0.965926 -0.258819 -0.258819 -0.965926 8112.7 10133.8)" fill="#5AA10A"/>
</g>
</g>
<g id="P head" filter="url(#filter1_d)">
<g id="Ellipse 2">
<use xlink:href="#path12_fill" transform="translate(7940.34 10057.2)" fill="#FFFFFF"/>
</g>
<g id="Ellipse 2.2" filter="url(#filter2_d)">
<use xlink:href="#path13_fill" transform="translate(7988.02 10112.2)" fill="#212121"/>
</g>
<g id="Ellipse 2.3" filter="url(#filter3_d)">
<use xlink:href="#path14_fill" transform="translate(7988.02 10131.1)" fill="#212121"/>
</g>
<g id="Group 2">
<g id="Ellipse 2.2">
<use xlink:href="#path15_fill" transform="matrix(0.714208 -0.699933 -0.714208 -0.699933 7946.99 10088.9)" fill="#212121"/>
</g>
<g id="Ellipse 2.3">
<use xlink:href="#path16_fill" transform="matrix(0.714208 -0.699933 -0.714208 -0.699933 7949.99 10080.1)" fill="#FFFFFF"/>
</g>
</g>
<g id="Group">
<g id="Ellipse 2.1">
<use xlink:href="#path15_fill" transform="matrix(0.714208 0.699933 0.714208 -0.699933 8014.03 10059.5)" fill="#212121"/>
</g>
<g id="Ellipse 2.4">
<use xlink:href="#path16_fill" transform="matrix(0.714208 0.699933 0.714208 -0.699933 8023.02 10062.4)" fill="#FFFFFF"/>
</g>
</g>
<g id="Ellipse 4.2">
<use xlink:href="#path17_fill" transform="matrix(0.871175 0.490973 -0.509082 0.860718 7970.68 10078.3)" fill="#212121"/>
</g>
<g id="Ellipse 4.5">
<use xlink:href="#path18_fill" transform="matrix(0.967455 -0.253044 0.264707 0.964329 8003.9 10086.2)" fill="#212121"/>
</g>
<g id="Ellipse 4.3">
<use xlink:href="#path19_fill" transform="translate(7975.01 10095.2)" fill="#FFFFFF"/>
</g>
<g id="Ellipse 4.4">
<use xlink:href="#path20_fill" transform="translate(7979.35 10097.3)" fill="#212121"/>
</g>
<g id="Ellipse 4.6">
<use xlink:href="#path19_fill" transform="translate(8009.69 10095.2)" fill="#FFFFFF"/>
</g>
</g>
<g id="P" filter="url(#filter4_d)">
<use xlink:href="#path21_fill" transform="translate(7836 10036)" fill="#FFFFFF"/>
</g>
<g id="n" filter="url(#filter5_d)">
<use xlink:href="#path22_fill" transform="translate(8063 10036)" fill="#FFFFFF"/>
</g>
<g id="a" filter="url(#filter6_d)">
<use xlink:href="#path23_fill" transform="translate(8233 10036)" fill="#FFFFFF"/>
</g>
</g>
<g id="Logo">
<use xlink:href="#path24_fill" transform="matrix(-1.83697e-16 -1 1 -1.83697e-16 7413 10130)" fill="#FFFFFF"/>
</g>
</g>
</g>
<defs>
<filter id="filter0_d" filterUnits="userSpaceOnUse" x="8148" y="10035" width="81" height="123" color-interpolation-filters="sRGB">
<feFlood flood-opacity="0" result="BackgroundImageFix"/>
<feColorMatrix in="SourceAlpha" type="matrix" values="0 0 0 0 0 0 0 0 0 0 0 0 0 0 0 0 0 0 255 0"/>
<feOffset dx="0" dy="4"/>
<feGaussianBlur stdDeviation="2"/>
<feColorMatrix type="matrix" values="0 0 0 0 0 0 0 0 0 0 0 0 0 0 0 0 0 0 0.25 0"/>
<feBlend mode="normal" in2="BackgroundImageFix" result="effect1_dropShadow"/>
<feBlend mode="normal" in="SourceGraphic" in2="effect1_dropShadow" result="shape"/>
</filter>
<filter id="filter1_d" filterUnits="userSpaceOnUse" x="7928" y="10045" width="135" height="110" color-interpolation-filters="sRGB">
<feFlood flood-opacity="0" result="BackgroundImageFix"/>
<feColorMatrix in="SourceAlpha" type="matrix" values="0 0 0 0 0 0 0 0 0 0 0 0 0 0 0 0 0 0 255 0"/>
<feOffset dx="0" dy="4"/>
<feGaussianBlur stdDeviation="2"/>
<feColorMatrix type="matrix" values="0 0 0 0 0 0 0 0 0 0 0 0 0 0 0 0 0 0 0.25 0"/>
<feBlend mode="normal" in2="BackgroundImageFix" result="effect1_dropShadow"/>
<feBlend mode="normal" in="SourceGraphic" in2="effect1_dropShadow" result="shape"/>
</filter>
<filter id="filter2_d" filterUnits="userSpaceOnUse" x="7984" y="10112" width="26" height="17" color-interpolation-filters="sRGB">
<feFlood flood-opacity="0" result="BackgroundImageFix"/>
<feColorMatrix in="SourceAlpha" type="matrix" values="0 0 0 0 0 0 0 0 0 0 0 0 0 0 0 0 0 0 255 0"/>
<feOffset dx="0" dy="4"/>
<feGaussianBlur stdDeviation="2"/>
<feColorMatrix type="matrix" values="0 0 0 0 0 0 0 0 0 0 0 0 0 0 0 0 0 0 0.25 0"/>
<feBlend mode="normal" in2="BackgroundImageFix" result="effect1_dropShadow"/>
<feBlend mode="normal" in="SourceGraphic" in2="effect1_dropShadow" result="shape"/>
</filter>
<filter id="filter3_d" filterUnits="userSpaceOnUse" x="7984" y="10131" width="26" height="15" color-interpolation-filters="sRGB">
<feFlood flood-opacity="0" result="BackgroundImageFix"/>
<feColorMatrix in="SourceAlpha" type="matrix" values="0 0 0 0 0 0 0 0 0 0 0 0 0 0 0 0 0 0 255 0"/>
<feOffset dx="0" dy="4"/>
<feGaussianBlur stdDeviation="2"/>
<feColorMatrix type="matrix" values="0 0 0 0 0 0 0 0 0 0 0 0 0 0 0 0 0 0 0.25 0"/>
<feBlend mode="normal" in2="BackgroundImageFix" result="effect1_dropShadow"/>
<feBlend mode="normal" in="SourceGraphic" in2="effect1_dropShadow" result="shape"/>
</filter>
<filter id="filter4_d" filterUnits="userSpaceOnUse" x="7841" y="10039" width="91" height="115" color-interpolation-filters="sRGB">
<feFlood flood-opacity="0" result="BackgroundImageFix"/>
<feColorMatrix in="SourceAlpha" type="matrix" values="0 0 0 0 0 0 0 0 0 0 0 0 0 0 0 0 0 0 255 0"/>
<feOffset dx="0" dy="4"/>
<feGaussianBlur stdDeviation="2"/>
<feColorMatrix type="matrix" values="0 0 0 0 0 0 0 0 0 0 0 0 0 0 0 0 0 0 0.25 0"/>
<feBlend mode="normal" in2="BackgroundImageFix" result="effect1_dropShadow"/>
<feBlend mode="normal" in="SourceGraphic" in2="effect1_dropShadow" result="shape"/>
</filter>
<filter id="filter5_d" filterUnits="userSpaceOnUse" x="8066" y="10068" width="78" height="89" color-interpolation-filters="sRGB">
<feFlood flood-opacity="0" result="BackgroundImageFix"/>
<feColorMatrix in="SourceAlpha" type="matrix" values="0 0 0 0 0 0 0 0 0 0 0 0 0 0 0 0 0 0 255 0"/>
<feOffset dx="0" dy="4"/>
<feGaussianBlur stdDeviation="2"/>
<feColorMatrix type="matrix" values="0 0 0 0 0 0 0 0 0 0 0 0 0 0 0 0 0 0 0.25 0"/>
<feBlend mode="normal" in2="BackgroundImageFix" result="effect1_dropShadow"/>
<feBlend mode="normal" in="SourceGraphic" in2="effect1_dropShadow" result="shape"/>
</filter>
<filter id="filter6_d" filterUnits="userSpaceOnUse" x="8233" y="10068" width="80" height="91" color-interpolation-filters="sRGB">
<feFlood flood-opacity="0" result="BackgroundImageFix"/>
<feColorMatrix in="SourceAlpha" type="matrix" values="0 0 0 0 0 0 0 0 0 0 0 0 0 0 0 0 0 0 255 0"/>
<feOffset dx="0" dy="4"/>
<feGaussianBlur stdDeviation="2"/>
<feColorMatrix type="matrix" values="0 0 0 0 0 0 0 0 0 0 0 0 0 0 0 0 0 0 0.25 0"/>
<feBlend mode="normal" in2="BackgroundImageFix" result="effect1_dropShadow"/>
<feBlend mode="normal" in="SourceGraphic" in2="effect1_dropShadow" result="shape"/>
</filter>
<path id="path0_fill" d="M 4.83398 71.79C 4.83398 59.4365 7.59277 49.5977 13.1104 42.2734C 18.6768 34.9492 26.2695 31.2871 35.8887 31.2871C 43.6035 31.2871 49.9756 34.168 55.0049 39.9297L 55.0049 -0.5L 76.2451 -0.5L 76.2451 112L 57.1289 112L 56.1035 103.577C 50.8301 110.169 44.043 113.465 35.7422 113.465C 26.416 113.465 18.9209 109.803 13.2568 102.479C 7.6416 95.1055 4.83398 84.876 4.83398 71.79ZM 26.001 73.3281C 26.001 80.75 27.2949 86.4385 29.8828 90.3936C 32.4707 94.3486 36.2305 96.3262 41.1621 96.3262C 47.7051 96.3262 52.3193 93.5674 55.0049 88.0498L 55.0049 56.7754C 52.3682 51.2578 47.8027 48.499 41.3086 48.499C 31.1035 48.499 26.001 56.7754 26.001 73.3281Z"/>
<path id="path1_fill" d="M 0 3C 0 1.34315 1.34315 0 3 0L 98.0221 0C 99.679 0 101.022 1.34315 101.022 3L 101.022 15.1456C 101.022 16.8024 99.679 18.1456 98.0221 18.1456L 3 18.1456C 1.34314 18.1456 0 16.8024 0 15.1456L 0 3Z"/>
<path id="path2_fill" d="M 0.223696 1.87888C 0.237447 0.837214 1.08579 4.52573e-13 2.12754 1.01567e-12C 3.18892 1.58937e-12 4.04539 0.867851 4.03138 1.92914L 3.83316 16.9448C 3.8194 17.9864 2.97106 18.8236 1.92931 18.8236C 0.867927 18.8236 0.0114569 17.9558 0.0254675 16.8945L 0.223696 1.87888Z"/>
<path id="path3_fill" d="M 0 3C 0 1.34315 1.34315 0 3 0L 64.781 0C 66.4378 0 67.781 1.34315 67.781 3L 67.781 8.86119C 67.781 10.518 66.4378 11.8612 64.781 11.8612L 3 11.8612C 1.34314 11.8612 0 10.518 0 8.86119L 0 3Z"/>
<path id="path4_fill" d="M 0.14707 1.23604C 0.156175 0.550753 0.714294 2.95818e-13 1.39964 6.63896e-13C 2.09799 1.03896e-12 2.66149 0.57104 2.65221 1.26932L 2.52201 11.0692C 2.5129 11.7545 1.95478 12.3052 1.26944 12.3052C 0.57109 12.3052 0.00758707 11.7342 0.0168647 11.0359L 0.14707 1.23604Z"/>
<path id="path5_fill" d="M 0.137942 4.93766C 0.172069 2.20076 2.40044 0 5.13755 0L 415.937 0C 418.723 0 420.972 2.27676 420.937 5.06234L 420.862 11.0623C 420.828 13.7992 418.6 16 415.862 16L 5.06274 16C 2.27694 16 0.02839 13.7232 0.0631247 10.9377L 0.137942 4.93766Z"/>
<path id="path6_fill" d="M 0 2C 0 0.895431 0.895431 0 2 0L 3.87682 0C 4.98139 0 5.87682 0.895431 5.87682 2L 5.87682 16.6557C 5.87682 17.7603 4.98139 18.6557 3.87682 18.6557L 2 18.6557C 0.895431 18.6557 0 17.7603 0 16.6557L 0 2Z"/>
<path id="path7_fill" d="M 44.5 0.624326C 48.7614 2.05267 34.098 9.62992 22.5 9.62992C 10.902 9.62992 0 3.16743 0 0.129869C 5 0.129869 10.902 0.129881 22.5 0.129881C 34.098 0.129881 41.5 -0.381215 44.5 0.624326Z"/>
<path id="path8_fill" d="M 44.5 2.99438C 48.7614 4.42273 34.098 15 22.5 15C 10.902 15 0 5.53749 0 2.49992C 5 2.49992 10.902 0 22.5 0C 34.098 0 41.5 1.98884 44.5 2.99438Z"/>
<path id="path9_fill" d="M 42.2454 2.99438C 46.5068 4.42273 31.8433 15 20.2454 15C 8.64738 15 0 6.03195 0 2.99438C 5 2.99438 8.64738 0 20.2454 0C 31.8433 0 39.2454 1.98884 42.2454 2.99438Z"/>
<path id="path10_fill" d="M 41.3146 0.0730191C 45.213 -0.953037 22.6998 9.17385 11.6257 9.17385C 0.551557 9.17385 2.51175e-07 11.2319 2.51175e-07 8.17708C 4.77416 8.17708 7.05482 6.95461 18.6206 4.34493C 29.6947 4.34493 38.3769 0.846221 41.3146 0.0730191Z"/>
<path id="path11_fill" d="M 45.7378 0.0754579C 49.7665 -0.984887 26.5009 9.48043 15.0567 9.48043C -0.954721 10.7174 0.0111983 13.6153 0.0111983 10.4584C 4.9449 10.4584 10.3331 7.18702 22.2854 4.49013C 33.7296 4.49013 42.702 0.874499 45.7378 0.0754579Z"/>
<path id="path12_fill" d="M 108.353 42.4911C 108.353 72.477 85.9663 88.8451 55.3805 88.8451C 24.7947 88.8451 0 72.477 0 42.4911C 0 12.5053 22.3868 0 52.9726 0C 83.5584 0 108.353 12.5053 108.353 42.4911Z"/>
<path id="path13_fill" d="M 17.3365 3.05553C 17.3365 6.04113 13.4556 8.46144 8.66825 8.46144C 3.88091 8.46144 0 6.04113 0 3.05553C 0 0.0699258 3.50403 0 8.29137 0C 13.0787 0 17.3365 0.0699258 17.3365 3.05553Z"/>
<path id="path14_fill" d="M 17.3365 1.07841C 17.3365 4.06402 13.4556 6.48433 8.66825 6.48433C 3.88091 6.48433 0 4.06402 0 1.07841C 0 -1.90719 3.88091 2.25351 8.66825 2.25351C 13.4556 2.25351 17.3365 -1.90719 17.3365 1.07841Z"/>
<path id="path15_fill" d="M 41.9844 9.92182C 41.9844 22.992 32.5858 33.5875 20.9922 33.5875C 9.39852 33.5875 0 22.992 0 9.92182C 0 -3.14838 9.39852 0.455287 20.9922 0.455287C 32.5858 0.455287 41.9844 -3.14838 41.9844 9.92182Z"/>
<path id="path16_fill" d="M 25.1906 6.20113C 25.1906 14.37 19.5515 20.9922 12.5953 20.9922C 5.63911 20.9922 0 14.37 0 6.20113C 0 -1.96774 5.63911 0.284554 12.5953 0.284554C 19.5515 0.284554 25.1906 -1.96774 25.1906 6.20113Z"/>
<path id="path17_fill" d="M 25.851 17.0272C 25.851 26.4311 20.0641 34.0545 12.9255 34.0545C 5.78695 34.0545 0 26.4311 0 17.0272C 0 7.62335 5.78695 0 12.9255 0C 20.0641 0 25.851 7.62335 25.851 17.0272Z"/>
<path id="path18_fill" d="M 25.9637 16.9509C 25.9637 26.3126 20.1515 33.9018 12.9818 33.9018C 5.81216 33.9018 0 26.3126 0 16.9509C 0 7.58918 5.81216 0 12.9818 0C 20.1515 0 25.9637 7.58918 25.9637 16.9509Z"/>
<path id="path19_fill" d="M 8.66825 4.23072C 8.66825 6.56728 6.7278 8.46144 4.33413 8.46144C 1.94045 8.46144 0 6.56728 0 4.23072C 0 1.89416 1.94045 0 4.33413 0C 6.7278 0 8.66825 1.89416 8.66825 4.23072Z"/>
<path id="path20_fill" d="M 4.33413 2.11536C 4.33413 3.28364 3.3639 4.23072 2.16706 4.23072C 0.970227 4.23072 0 3.28364 0 2.11536C 0 0.947079 0.970227 0 2.16706 0C 3.3639 0 4.33413 0.947079 4.33413 2.11536Z"/>
<path id="path21_fill" d="M 31.4941 72.4268L 31.4941 110L 9.52148 110L 9.52148 3.35938L 51.123 3.35938C 59.1309 3.35938 66.1621 4.82422 72.2168 7.75391C 78.3203 10.6836 83.0078 14.8584 86.2793 20.2783C 89.5508 25.6494 91.1865 31.7773 91.1865 38.6621C 91.1865 49.1113 87.5977 57.3633 80.4199 63.418C 73.291 69.4238 63.4033 72.4268 50.7568 72.4268L 31.4941 72.4268ZM 31.4941 54.6289L 51.123 54.6289C 56.9336 54.6289 61.3525 53.2617 64.3799 50.5273C 67.4561 47.793 68.9941 43.8867 68.9941 38.8086C 68.9941 33.584 67.4561 29.3604 64.3799 26.1377C 61.3037 22.915 57.0557 21.2549 51.6357 21.1572L 31.4941 21.1572L 31.4941 54.6289Z"/>
<path id="path22_fill" d="M 27.6123 33.752L 28.2715 42.9072C 33.9355 35.8272 41.5283 32.2871 51.0498 32.2871C 59.4482 32.2871 65.6982 34.7529 69.7998 39.6846C 73.9014 44.6162 76.001 51.9893 76.0986 61.8037L 76.0986 113L 54.9316 113L 54.9316 62.3164C 54.9316 57.8242 53.9551 54.5771 52.002 52.5752C 50.0488 50.5244 46.8018 49.499 42.2607 49.499C 36.3037 49.499 31.8359 52.0381 28.8574 57.1162L 28.8574 113L 7.69043 113L 7.69043 33.752L 27.6123 33.752Z"/>
<path id="path23_fill" d="M 54.0527 113C 53.0762 111.096 52.3682 108.728 51.9287 105.896C 46.8018 111.608 40.1367 114.465 31.9336 114.465C 24.1699 114.465 17.7246 112.219 12.5977 107.727C 7.51953 103.234 4.98047 97.5703 4.98047 90.7344C 4.98047 82.3359 8.08105 75.8906 14.2822 71.3984C 20.5322 66.9063 29.541 64.6357 41.3086 64.5869L 51.0498 64.5869L 51.0498 60.0459C 51.0498 56.3838 50.0977 53.4541 48.1934 51.2568C 46.3379 49.0596 43.3838 47.9609 39.3311 47.9609C 35.7666 47.9609 32.959 48.8154 30.9082 50.5244C 28.9062 52.2334 27.9053 54.5771 27.9053 57.5557L 6.73828 57.5557C 6.73828 52.9658 8.1543 48.7178 10.9863 44.8115C 13.8184 40.9053 17.8223 37.8535 22.998 35.6562C 28.1738 33.4102 33.9844 32.2871 40.4297 32.2871C 50.1953 32.2871 57.9346 34.7529 63.6475 39.6846C 69.4092 44.5674 72.29 51.4521 72.29 60.3389L 72.29 94.6895C 72.3389 102.209 73.3887 107.897 75.4395 111.755L 75.4395 113L 54.0527 113ZM 36.5479 98.2783C 39.6729 98.2783 42.5537 97.5947 45.1904 96.2275C 47.8271 94.8115 49.7803 92.9316 51.0498 90.5879L 51.0498 76.9648L 43.1396 76.9648C 32.5439 76.9648 26.9043 80.627 26.2207 87.9512L 26.1475 89.1963C 26.1475 91.833 27.0752 94.0059 28.9307 95.7148C 30.7861 97.4238 33.3252 98.2783 36.5479 98.2783Z"/>
<path id="path24_fill" d="M 14.1073 16.22L 18.9873 16.22L 18.9873 18L 11.8273 18L 11.8273 3.88L 14.1073 3.88L 14.1073 16.22ZM 25.8126 6.84C 26.8792 6.84 27.8392 7.06667 28.6926 7.52C 29.5459 7.97333 30.2126 8.62667 30.6926 9.48C 31.1726 10.3333 31.4126 11.3333 31.4126 12.48C 31.4126 13.64 31.1726 14.6467 30.6926 15.5C 30.2126 16.3533 29.5459 17.0067 28.6926 17.46C 27.8392 17.9133 26.8792 18.14 25.8126 18.14C 24.7459 18.14 23.7859 17.9133 22.9326 17.46C 22.0926 17.0067 21.4259 16.3533 20.9326 15.5C 20.4526 14.6333 20.2126 13.6267 20.2126 12.48C 20.2126 11.3333 20.4526 10.3333 20.9326 9.48C 21.4259 8.62667 22.0926 7.97333 22.9326 7.52C 23.7859 7.06667 24.7459 6.84 25.8126 6.84ZM 25.8126 8.82C 25.2259 8.82 24.6859 8.95333 24.1926 9.22C 23.6992 9.48667 23.2992 9.9 22.9926 10.46C 22.6992 11.0067 22.5526 11.68 22.5526 12.48C 22.5526 13.2933 22.6992 13.9733 22.9926 14.52C 23.2992 15.0667 23.6992 15.4733 24.1926 15.74C 24.6859 16.0067 25.2259 16.14 25.8126 16.14C 26.3992 16.14 26.9392 16.0067 27.4326 15.74C 27.9259 15.4733 28.3192 15.0667 28.6126 14.52C 28.9192 13.9733 29.0726 13.2933 29.0726 12.48C 29.0726 11.68 28.9192 11.0067 28.6126 10.46C 28.3192 9.9 27.9259 9.48667 27.4326 9.22C 26.9392 8.95333 26.3992 8.82 25.8126 8.82ZM 38.0246 6.84C 39.0246 6.84 39.8779 7.08667 40.5846 7.58C 41.2913 8.07333 41.7913 8.72667 42.0846 9.54L 42.0846 6.98L 44.3646 6.98L 44.3646 18.12C 44.3646 19.1467 44.1513 20.0533 43.7246 20.84C 43.3113 21.64 42.7113 22.2667 41.9246 22.72C 41.1379 23.1733 40.2046 23.4 39.1246 23.4C 37.5779 23.4 36.3246 23.0333 35.3646 22.3C 34.4179 21.5667 33.8246 20.5733 33.5846 19.32L 35.8446 19.32C 36.0313 19.9733 36.3913 20.48 36.9246 20.84C 37.4579 21.2133 38.1379 21.4 38.9646 21.4C 39.8713 21.4 40.6179 21.12 41.2046 20.56C 41.7913 20 42.0846 19.1867 42.0846 18.12L 42.0846 15.44C 41.7913 16.2533 41.2913 16.9067 40.5846 17.4C 39.8779 17.8933 39.0246 18.14 38.0246 18.14C 37.0646 18.14 36.2046 17.9133 35.4446 17.46C 34.6979 17.0067 34.1113 16.3533 33.6846 15.5C 33.2579 14.6467 33.0446 13.64 33.0446 12.48C 33.0446 11.3333 33.2579 10.3333 33.6846 9.48C 34.1113 8.62667 34.6979 7.97333 35.4446 7.52C 36.2046 7.06667 37.0646 6.84 38.0246 6.84ZM 38.7246 8.84C 37.7113 8.84 36.8979 9.16667 36.2846 9.82C 35.6846 10.46 35.3846 11.3467 35.3846 12.48C 35.3846 13.6133 35.6846 14.5067 36.2846 15.16C 36.8979 15.8 37.7113 16.12 38.7246 16.12C 39.3646 16.12 39.9379 15.9733 40.4446 15.68C 40.9513 15.3733 41.3513 14.9467 41.6446 14.4C 41.9379 13.8533 42.0846 13.2133 42.0846 12.48C 42.0846 11.76 41.9379 11.1267 41.6446 10.58C 41.3513 10.02 40.9513 9.59333 40.4446 9.3C 39.9379 8.99333 39.3646 8.84 38.7246 8.84ZM 52.1407 6.84C 53.2074 6.84 54.1674 7.06667 55.0207 7.52C 55.874 7.97333 56.5407 8.62667 57.0207 9.48C 57.5007 10.3333 57.7407 11.3333 57.7407 12.48C 57.7407 13.64 57.5007 14.6467 57.0207 15.5C 56.5407 16.3533 55.874 17.0067 55.0207 17.46C 54.1674 17.9133 53.2074 18.14 52.1407 18.14C 51.074 18.14 50.114 17.9133 49.2607 17.46C 48.4207 17.0067 47.754 16.3533 47.2607 15.5C 46.7807 14.6333 46.5407 13.6267 46.5407 12.48C 46.5407 11.3333 46.7807 10.3333 47.2607 9.48C 47.754 8.62667 48.4207 7.97333 49.2607 7.52C 50.114 7.06667 51.074 6.84 52.1407 6.84ZM 52.1407 8.82C 51.554 8.82 51.014 8.95333 50.5207 9.22C 50.0274 9.48667 49.6274 9.9 49.3207 10.46C 49.0274 11.0067 48.8807 11.68 48.8807 12.48C 48.8807 13.2933 49.0274 13.9733 49.3207 14.52C 49.6274 15.0667 50.0274 15.4733 50.5207 15.74C 51.014 16.0067 51.554 16.14 52.1407 16.14C 52.7274 16.14 53.2674 16.0067 53.7607 15.74C 54.254 15.4733 54.6474 15.0667 54.9407 14.52C 55.2474 13.9733 55.4007 13.2933 55.4007 12.48C 55.4007 11.68 55.2474 11.0067 54.9407 10.46C 54.6474 9.9 54.254 9.48667 53.7607 9.22C 53.2674 8.95333 52.7274 8.82 52.1407 8.82Z"/>
</defs>
</svg>
