<svg width="239" height="244" viewBox="0 0 239 244" version="1.1" xmlns="http://www.w3.org/2000/svg" xmlns:xlink="http://www.w3.org/1999/xlink">
<g id="Canvas" fill="none">
<g id="Group 3">
<g id="Sketch">
<path d="M 11.1465 15.2695C 11.1465 14.7161 10.9512 14.293 10.5605 14C 10.1699 13.7005 9.4668 13.388 8.45117 13.0625C 7.43555 12.7305 6.63151 12.4049 6.03906 12.0859C 4.42448 11.2135 3.61719 10.0384 3.61719 8.56055C 3.61719 7.79232 3.83203 7.10872 4.26172 6.50977C 4.69792 5.9043 5.31966 5.43229 6.12695 5.09375C 6.94076 4.75521 7.85221 4.58594 8.86133 4.58594C 9.87695 4.58594 10.7819 4.77148 11.5762 5.14258C 12.3704 5.50716 12.9857 6.02474 13.4219 6.69531C 13.8646 7.36589 14.0859 8.1276 14.0859 8.98047L 11.1562 8.98047C 11.1562 8.32943 10.9512 7.82487 10.541 7.4668C 10.1309 7.10221 9.55469 6.91992 8.8125 6.91992C 8.09635 6.91992 7.53971 7.07292 7.14258 7.37891C 6.74544 7.67839 6.54688 8.07552 6.54688 8.57031C 6.54688 9.03255 6.77799 9.41992 7.24023 9.73242C 7.70898 10.0449 8.39583 10.3379 9.30078 10.6113C 10.9674 11.1126 12.1816 11.7344 12.9434 12.4766C 13.7051 13.2188 14.0859 14.1432 14.0859 15.25C 14.0859 16.4805 13.6204 17.4473 12.6895 18.1504C 11.7585 18.847 10.5052 19.1953 8.92969 19.1953C 7.83594 19.1953 6.83984 18.9967 5.94141 18.5996C 5.04297 18.196 4.35612 17.6458 3.88086 16.9492C 3.41211 16.2526 3.17773 15.4453 3.17773 14.5273L 6.11719 14.5273C 6.11719 16.0964 7.05469 16.8809 8.92969 16.8809C 9.6263 16.8809 10.1699 16.7409 10.5605 16.4609C 10.9512 16.1745 11.1465 15.7773 11.1465 15.2695ZM 19.7305 14.7617L 18.7148 15.7773L 18.7148 19L 15.8926 19L 15.8926 4L 18.7148 4L 18.7148 12.3105L 19.2617 11.6074L 21.9668 8.43359L 25.3555 8.43359L 21.5371 12.8379L 25.6875 19L 22.4453 19L 19.7305 14.7617ZM 31.2441 19.1953C 29.6947 19.1953 28.4316 18.7201 27.4551 17.7695C 26.485 16.819 26 15.5527 26 13.9707L 26 13.6973C 26 12.6361 26.2051 11.6888 26.6152 10.8555C 27.0254 10.0156 27.6048 9.37109 28.3535 8.92188C 29.1087 8.46615 29.9681 8.23828 30.9316 8.23828C 32.377 8.23828 33.513 8.69401 34.3398 9.60547C 35.1732 10.5169 35.5898 11.8092 35.5898 13.4824L 35.5898 14.6348L 28.8613 14.6348C 28.9525 15.3249 29.2259 15.8783 29.6816 16.2949C 30.1439 16.7116 30.7266 16.9199 31.4297 16.9199C 32.5169 16.9199 33.3665 16.526 33.9785 15.7383L 35.3652 17.291C 34.9421 17.89 34.3691 18.3587 33.6465 18.6973C 32.9238 19.0293 32.123 19.1953 31.2441 19.1953ZM 30.9219 10.5234C 30.362 10.5234 29.9062 10.7122 29.5547 11.0898C 29.2096 11.4674 28.9883 12.0078 28.8906 12.7109L 32.8164 12.7109L 32.8164 12.4863C 32.8034 11.8613 32.6341 11.3796 32.3086 11.041C 31.9831 10.696 31.5208 10.5234 30.9219 10.5234ZM 40.5801 5.83594L 40.5801 8.43359L 42.3867 8.43359L 42.3867 10.5039L 40.5801 10.5039L 40.5801 15.7773C 40.5801 16.168 40.6549 16.4479 40.8047 16.6172C 40.9544 16.7865 41.2409 16.8711 41.6641 16.8711C 41.9766 16.8711 42.2533 16.8483 42.4941 16.8027L 42.4941 18.9414C 41.9408 19.1107 41.3711 19.1953 40.7852 19.1953C 38.806 19.1953 37.7969 18.196 37.7578 16.1973L 37.7578 10.5039L 36.2148 10.5039L 36.2148 8.43359L 37.7578 8.43359L 37.7578 5.83594L 40.5801 5.83594ZM 48.3535 16.9199C 48.8743 16.9199 49.2975 16.7767 49.623 16.4902C 49.9486 16.2038 50.1178 15.8229 50.1309 15.3477L 52.7773 15.3477C 52.7708 16.0638 52.5755 16.7214 52.1914 17.3203C 51.8073 17.9128 51.2799 18.375 50.6094 18.707C 49.9453 19.0326 49.2096 19.1953 48.4023 19.1953C 46.8919 19.1953 45.7005 18.7168 44.8281 17.7598C 43.9557 16.7962 43.5195 15.4681 43.5195 13.7754L 43.5195 13.5898C 43.5195 11.9622 43.9525 10.6634 44.8184 9.69336C 45.6842 8.72331 46.8724 8.23828 48.3828 8.23828C 49.7044 8.23828 50.7624 8.61589 51.5566 9.37109C 52.3574 10.1198 52.7643 11.1191 52.7773 12.3691L 50.1309 12.3691C 50.1178 11.8223 49.9486 11.3796 49.623 11.041C 49.2975 10.696 48.8678 10.5234 48.334 10.5234C 47.6764 10.5234 47.1784 10.7643 46.8398 11.2461C 46.5078 11.7214 46.3418 12.4961 46.3418 13.5703L 46.3418 13.8633C 46.3418 14.9505 46.5078 15.7318 46.8398 16.207C 47.1719 16.6823 47.6764 16.9199 48.3535 16.9199ZM 57.1426 9.58594C 57.8913 8.6875 58.832 8.23828 59.9648 8.23828C 62.2565 8.23828 63.4186 9.56966 63.4512 12.2324L 63.4512 19L 60.6289 19L 60.6289 12.3105C 60.6289 11.7051 60.4987 11.2591 60.2383 10.9727C 59.9779 10.6797 59.5449 10.5332 58.9395 10.5332C 58.1126 10.5332 57.5137 10.8522 57.1426 11.4902L 57.1426 19L 54.3203 19L 54.3203 4L 57.1426 4L 57.1426 9.58594Z" transform="translate(27 114)" fill="#F2F2F2"/>
</g>
<g id="Principle">
<path d="M 12.9062 12.9922L 12.9062 17L 10.5625 17L 10.5625 5.625L 15 5.625C 15.8542 5.625 16.6042 5.78125 17.25 6.09375C 17.901 6.40625 18.401 6.85156 18.75 7.42969C 19.099 8.0026 19.2734 8.65625 19.2734 9.39062C 19.2734 10.5052 18.8906 11.3854 18.125 12.0312C 17.3646 12.6719 16.3099 12.9922 14.9609 12.9922L 12.9062 12.9922ZM 12.9062 11.0938L 15 11.0938C 15.6198 11.0938 16.0911 10.9479 16.4141 10.6562C 16.7422 10.3646 16.9062 9.94792 16.9062 9.40625C 16.9062 8.84896 16.7422 8.39844 16.4141 8.05469C 16.0859 7.71094 15.6328 7.53385 15.0547 7.52344L 12.9062 7.52344L 12.9062 11.0938ZM 25.4922 10.6641C 25.1849 10.6224 24.9141 10.6016 24.6797 10.6016C 23.8255 10.6016 23.2656 10.8906 23 11.4688L 23 17L 20.7422 17L 20.7422 8.54688L 22.875 8.54688L 22.9375 9.55469C 23.3906 8.77865 24.0182 8.39062 24.8203 8.39062C 25.0703 8.39062 25.3047 8.42448 25.5234 8.49219L 25.4922 10.6641ZM 28.9688 17L 26.7031 17L 26.7031 8.54688L 28.9688 8.54688L 28.9688 17ZM 26.5703 6.35938C 26.5703 6.02083 26.6823 5.74219 26.9062 5.52344C 27.1354 5.30469 27.4453 5.19531 27.8359 5.19531C 28.2214 5.19531 28.5286 5.30469 28.7578 5.52344C 28.987 5.74219 29.1016 6.02083 29.1016 6.35938C 29.1016 6.70312 28.9844 6.98438 28.75 7.20312C 28.5208 7.42188 28.2161 7.53125 27.8359 7.53125C 27.4557 7.53125 27.1484 7.42188 26.9141 7.20312C 26.6849 6.98438 26.5703 6.70312 26.5703 6.35938ZM 32.9141 8.54688L 32.9844 9.52344C 33.5885 8.76823 34.3984 8.39062 35.4141 8.39062C 36.3099 8.39062 36.9766 8.65365 37.4141 9.17969C 37.8516 9.70573 38.0755 10.4922 38.0859 11.5391L 38.0859 17L 35.8281 17L 35.8281 11.5938C 35.8281 11.1146 35.724 10.7682 35.5156 10.5547C 35.3073 10.3359 34.9609 10.2266 34.4766 10.2266C 33.8411 10.2266 33.3646 10.4974 33.0469 11.0391L 33.0469 17L 30.7891 17L 30.7891 8.54688L 32.9141 8.54688ZM 43.3203 15.3359C 43.737 15.3359 44.0755 15.2214 44.3359 14.9922C 44.5964 14.763 44.7318 14.4583 44.7422 14.0781L 46.8594 14.0781C 46.8542 14.651 46.6979 15.1771 46.3906 15.6562C 46.0833 16.1302 45.6615 16.5 45.125 16.7656C 44.5938 17.026 44.0052 17.1562 43.3594 17.1562C 42.151 17.1562 41.1979 16.7734 40.5 16.0078C 39.8021 15.237 39.4531 14.1745 39.4531 12.8203L 39.4531 12.6719C 39.4531 11.3698 39.7995 10.3307 40.4922 9.55469C 41.1849 8.77865 42.1354 8.39062 43.3438 8.39062C 44.401 8.39062 45.2474 8.69271 45.8828 9.29688C 46.5234 9.89583 46.849 10.6953 46.8594 11.6953L 44.7422 11.6953C 44.7318 11.2578 44.5964 10.9036 44.3359 10.6328C 44.0755 10.3568 43.7318 10.2188 43.3047 10.2188C 42.7786 10.2188 42.3802 10.4115 42.1094 10.7969C 41.8438 11.1771 41.7109 11.7969 41.7109 12.6562L 41.7109 12.8906C 41.7109 13.7604 41.8438 14.3854 42.1094 14.7656C 42.375 15.1458 42.7786 15.3359 43.3203 15.3359ZM 50.5312 17L 48.2656 17L 48.2656 8.54688L 50.5312 8.54688L 50.5312 17ZM 48.1328 6.35938C 48.1328 6.02083 48.2448 5.74219 48.4688 5.52344C 48.6979 5.30469 49.0078 5.19531 49.3984 5.19531C 49.7839 5.19531 50.0911 5.30469 50.3203 5.52344C 50.5495 5.74219 50.6641 6.02083 50.6641 6.35938C 50.6641 6.70312 50.5469 6.98438 50.3125 7.20312C 50.0833 7.42188 49.7786 7.53125 49.3984 7.53125C 49.0182 7.53125 48.7109 7.42188 48.4766 7.20312C 48.2474 6.98438 48.1328 6.70312 48.1328 6.35938ZM 60.0078 12.8516C 60.0078 14.1536 59.7109 15.1979 59.1172 15.9844C 58.5286 16.7656 57.7318 17.1562 56.7266 17.1562C 55.8724 17.1562 55.1823 16.8594 54.6562 16.2656L 54.6562 20.25L 52.3984 20.25L 52.3984 8.54688L 54.4922 8.54688L 54.5703 9.375C 55.1172 8.71875 55.8307 8.39062 56.7109 8.39062C 57.7526 8.39062 58.5625 8.77604 59.1406 9.54688C 59.7188 10.3177 60.0078 11.3802 60.0078 12.7344L 60.0078 12.8516ZM 57.75 12.6875C 57.75 11.901 57.6094 11.2943 57.3281 10.8672C 57.0521 10.4401 56.6484 10.2266 56.1172 10.2266C 55.4089 10.2266 54.9219 10.4974 54.6562 11.0391L 54.6562 14.5C 54.9323 15.0573 55.4245 15.3359 56.1328 15.3359C 57.2109 15.3359 57.75 14.4531 57.75 12.6875ZM 63.7969 17L 61.5312 17L 61.5312 5L 63.7969 5L 63.7969 17ZM 69.5547 17.1562C 68.3151 17.1562 67.3047 16.776 66.5234 16.0156C 65.7474 15.2552 65.3594 14.2422 65.3594 12.9766L 65.3594 12.7578C 65.3594 11.9089 65.5234 11.151 65.8516 10.4844C 66.1797 9.8125 66.6432 9.29688 67.2422 8.9375C 67.8464 8.57292 68.5339 8.39062 69.3047 8.39062C 70.4609 8.39062 71.3698 8.75521 72.0312 9.48438C 72.6979 10.2135 73.0312 11.2474 73.0312 12.5859L 73.0312 13.5078L 67.6484 13.5078C 67.7214 14.0599 67.9401 14.5026 68.3047 14.8359C 68.6745 15.1693 69.1406 15.3359 69.7031 15.3359C 70.5729 15.3359 71.2526 15.0208 71.7422 14.3906L 72.8516 15.6328C 72.513 16.112 72.0547 16.487 71.4766 16.7578C 70.8984 17.0234 70.2578 17.1562 69.5547 17.1562ZM 69.2969 10.2188C 68.849 10.2188 68.4844 10.3698 68.2031 10.6719C 67.9271 10.974 67.75 11.4062 67.6719 11.9688L 70.8125 11.9688L 70.8125 11.7891C 70.8021 11.2891 70.6667 10.9036 70.4062 10.6328C 70.1458 10.3568 69.776 10.2188 69.2969 10.2188Z" transform="translate(14 81)" fill="#F2F2F2" fill-opacity="0.8"/>
</g>
<g id="Figma">
<path d="M 27.0625 12.3516L 22.5625 12.3516L 22.5625 17L 20.2188 17L 20.2188 5.625L 27.625 5.625L 27.625 7.52344L 22.5625 7.52344L 22.5625 10.4609L 27.0625 10.4609L 27.0625 12.3516ZM 31.2188 17L 28.9531 17L 28.9531 8.54688L 31.2188 8.54688L 31.2188 17ZM 28.8203 6.35938C 28.8203 6.02083 28.9323 5.74219 29.1562 5.52344C 29.3854 5.30469 29.6953 5.19531 30.0859 5.19531C 30.4714 5.19531 30.7786 5.30469 31.0078 5.52344C 31.237 5.74219 31.3516 6.02083 31.3516 6.35938C 31.3516 6.70312 31.2344 6.98438 31 7.20312C 30.7708 7.42188 30.4661 7.53125 30.0859 7.53125C 29.7057 7.53125 29.3984 7.42188 29.1641 7.20312C 28.9349 6.98438 28.8203 6.70312 28.8203 6.35938ZM 32.7578 12.7109C 32.7578 11.4141 33.0651 10.3698 33.6797 9.57812C 34.2995 8.78646 35.1328 8.39062 36.1797 8.39062C 37.1068 8.39062 37.8281 8.70833 38.3438 9.34375L 38.4375 8.54688L 40.4844 8.54688L 40.4844 16.7188C 40.4844 17.4583 40.3151 18.1016 39.9766 18.6484C 39.6432 19.1953 39.1719 19.612 38.5625 19.8984C 37.9531 20.1849 37.2396 20.3281 36.4219 20.3281C 35.8021 20.3281 35.1979 20.2031 34.6094 19.9531C 34.0208 19.7083 33.5755 19.3906 33.2734 19L 34.2734 17.625C 34.8359 18.2552 35.5182 18.5703 36.3203 18.5703C 36.9193 18.5703 37.3854 18.4089 37.7188 18.0859C 38.0521 17.7682 38.2188 17.3151 38.2188 16.7266L 38.2188 16.2734C 37.6979 16.862 37.013 17.1562 36.1641 17.1562C 35.1484 17.1562 34.3255 16.7604 33.6953 15.9688C 33.0703 15.1719 32.7578 14.1172 32.7578 12.8047L 32.7578 12.7109ZM 35.0156 12.875C 35.0156 13.6406 35.1693 14.2422 35.4766 14.6797C 35.7839 15.112 36.2057 15.3281 36.7422 15.3281C 37.4297 15.3281 37.9219 15.0703 38.2188 14.5547L 38.2188 11C 37.9167 10.4844 37.4297 10.2266 36.7578 10.2266C 36.2161 10.2266 35.7891 10.4479 35.4766 10.8906C 35.1693 11.3333 35.0156 11.9948 35.0156 12.875ZM 44.3438 8.54688L 44.4141 9.49219C 45.013 8.75781 45.8229 8.39062 46.8438 8.39062C 47.9323 8.39062 48.6797 8.82031 49.0859 9.67969C 49.6797 8.82031 50.526 8.39062 51.625 8.39062C 52.5417 8.39062 53.224 8.65885 53.6719 9.19531C 54.1198 9.72656 54.3438 10.5286 54.3438 11.6016L 54.3438 17L 52.0781 17L 52.0781 11.6094C 52.0781 11.1302 51.9844 10.7812 51.7969 10.5625C 51.6094 10.3385 51.2786 10.2266 50.8047 10.2266C 50.1276 10.2266 49.6589 10.5495 49.3984 11.1953L 49.4062 17L 47.1484 17L 47.1484 11.6172C 47.1484 11.1276 47.0521 10.7734 46.8594 10.5547C 46.6667 10.3359 46.3385 10.2266 45.875 10.2266C 45.2344 10.2266 44.7708 10.4922 44.4844 11.0234L 44.4844 17L 42.2266 17L 42.2266 8.54688L 44.3438 8.54688ZM 60.9844 17C 60.8802 16.7969 60.8047 16.5443 60.7578 16.2422C 60.2109 16.8516 59.5 17.1562 58.625 17.1562C 57.7969 17.1562 57.1094 16.9167 56.5625 16.4375C 56.0208 15.9583 55.75 15.3542 55.75 14.625C 55.75 13.7292 56.0807 13.0417 56.7422 12.5625C 57.4089 12.0833 58.3698 11.8411 59.625 11.8359L 60.6641 11.8359L 60.6641 11.3516C 60.6641 10.9609 60.5625 10.6484 60.3594 10.4141C 60.1615 10.1797 59.8464 10.0625 59.4141 10.0625C 59.0339 10.0625 58.7344 10.1536 58.5156 10.3359C 58.3021 10.5182 58.1953 10.7682 58.1953 11.0859L 55.9375 11.0859C 55.9375 10.5964 56.0885 10.1432 56.3906 9.72656C 56.6927 9.3099 57.1198 8.98438 57.6719 8.75C 58.224 8.51042 58.8438 8.39062 59.5312 8.39062C 60.5729 8.39062 61.3984 8.65365 62.0078 9.17969C 62.6224 9.70052 62.9297 10.4349 62.9297 11.3828L 62.9297 15.0469C 62.9349 15.849 63.0469 16.4557 63.2656 16.8672L 63.2656 17L 60.9844 17ZM 59.1172 15.4297C 59.4505 15.4297 59.7578 15.3568 60.0391 15.2109C 60.3203 15.0599 60.5286 14.8594 60.6641 14.6094L 60.6641 13.1562L 59.8203 13.1562C 58.6901 13.1562 58.0885 13.5469 58.0156 14.3281L 58.0078 14.4609C 58.0078 14.7422 58.1068 14.974 58.3047 15.1562C 58.5026 15.3385 58.7734 15.4297 59.1172 15.4297Z" transform="translate(22 47)" fill="#F2F2F2" fill-opacity="0.7"/>
</g>
<g id="origami">
<path d="M 19.5879 12.5024C 19.5879 11.8211 19.7191 11.2139 19.9814 10.6807C 20.2438 10.1475 20.6204 9.73486 21.1113 9.44287C 21.6064 9.15088 22.1799 9.00488 22.8315 9.00488C 23.7583 9.00488 24.5137 9.28841 25.0977 9.85547C 25.6859 10.4225 26.0138 11.1927 26.0815 12.166L 26.0942 12.6357C 26.0942 13.6895 25.8001 14.5358 25.2119 15.1748C 24.6237 15.8096 23.8345 16.127 22.8442 16.127C 21.854 16.127 21.0627 15.8096 20.4702 15.1748C 19.882 14.54 19.5879 13.6768 19.5879 12.585L 19.5879 12.5024ZM 21.4224 12.6357C 21.4224 13.2874 21.5451 13.7868 21.7905 14.1338C 22.036 14.4766 22.3872 14.6479 22.8442 14.6479C 23.2886 14.6479 23.6356 14.4787 23.8853 14.1401C 24.1349 13.7974 24.2598 13.2515 24.2598 12.5024C 24.2598 11.8634 24.1349 11.3683 23.8853 11.0171C 23.6356 10.6659 23.2843 10.4902 22.8315 10.4902C 22.383 10.4902 22.036 10.6659 21.7905 11.0171C 21.5451 11.3641 21.4224 11.9036 21.4224 12.6357ZM 31.0835 10.8521C 30.8338 10.8182 30.6138 10.8013 30.4233 10.8013C 29.7293 10.8013 29.2744 11.0361 29.0586 11.5059L 29.0586 16L 27.2241 16L 27.2241 9.13184L 28.957 9.13184L 29.0078 9.95068C 29.376 9.32015 29.8859 9.00488 30.5376 9.00488C 30.7407 9.00488 30.9312 9.03239 31.1089 9.0874L 31.0835 10.8521ZM 33.9082 16L 32.0674 16L 32.0674 9.13184L 33.9082 9.13184L 33.9082 16ZM 31.9595 7.35449C 31.9595 7.07943 32.0505 6.85303 32.2324 6.67529C 32.4186 6.49756 32.6704 6.40869 32.9878 6.40869C 33.3009 6.40869 33.5506 6.49756 33.7368 6.67529C 33.923 6.85303 34.0161 7.07943 34.0161 7.35449C 34.0161 7.63379 33.9209 7.8623 33.7305 8.04004C 33.5443 8.21777 33.2967 8.30664 32.9878 8.30664C 32.6789 8.30664 32.4292 8.21777 32.2388 8.04004C 32.0526 7.8623 31.9595 7.63379 31.9595 7.35449ZM 35.1587 12.5151C 35.1587 11.4614 35.4084 10.613 35.9077 9.96973C 36.4113 9.3265 37.0884 9.00488 37.939 9.00488C 38.6922 9.00488 39.2783 9.26302 39.6973 9.7793L 39.7734 9.13184L 41.4365 9.13184L 41.4365 15.7715C 41.4365 16.3724 41.299 16.895 41.0239 17.3394C 40.7531 17.7837 40.3701 18.1222 39.875 18.355C 39.3799 18.5877 38.8001 18.7041 38.1357 18.7041C 37.6322 18.7041 37.1413 18.6025 36.6631 18.3994C 36.1849 18.2005 35.8231 17.9424 35.5776 17.625L 36.3901 16.5078C 36.8472 17.0199 37.4015 17.2759 38.0532 17.2759C 38.5399 17.2759 38.9186 17.1447 39.1895 16.8823C 39.4603 16.6242 39.5957 16.256 39.5957 15.7778L 39.5957 15.4097C 39.1725 15.8879 38.616 16.127 37.9263 16.127C 37.1011 16.127 36.4325 15.8053 35.9204 15.1621C 35.4126 14.5146 35.1587 13.6577 35.1587 12.5913L 35.1587 12.5151ZM 36.9932 12.6484C 36.9932 13.2705 37.118 13.7593 37.3677 14.1147C 37.6174 14.466 37.9601 14.6416 38.396 14.6416C 38.9546 14.6416 39.3545 14.4321 39.5957 14.0132L 39.5957 11.125C 39.3503 10.7061 38.9546 10.4966 38.4087 10.4966C 37.9686 10.4966 37.6216 10.6764 37.3677 11.0361C 37.118 11.3958 36.9932 11.9333 36.9932 12.6484ZM 46.832 16C 46.7474 15.835 46.686 15.6297 46.6479 15.3843C 46.2036 15.8794 45.626 16.127 44.915 16.127C 44.2422 16.127 43.6836 15.9323 43.2393 15.543C 42.7992 15.1536 42.5791 14.6628 42.5791 14.0703C 42.5791 13.3424 42.8478 12.7839 43.3853 12.3945C 43.9269 12.0052 44.7077 11.8084 45.7275 11.8042L 46.5718 11.8042L 46.5718 11.4106C 46.5718 11.0933 46.4893 10.8394 46.3242 10.6489C 46.1634 10.4585 45.9074 10.3633 45.5562 10.3633C 45.2472 10.3633 45.0039 10.4373 44.8262 10.5854C 44.6527 10.7336 44.5659 10.9367 44.5659 11.1948L 42.7314 11.1948C 42.7314 10.797 42.8542 10.4289 43.0996 10.0903C 43.3451 9.75179 43.6921 9.4873 44.1406 9.29688C 44.5892 9.10221 45.0928 9.00488 45.6514 9.00488C 46.4977 9.00488 47.1685 9.21859 47.6636 9.646C 48.1629 10.0692 48.4126 10.6659 48.4126 11.436L 48.4126 14.4131C 48.4168 15.0648 48.5078 15.5578 48.6855 15.8921L 48.6855 16L 46.832 16ZM 45.3149 14.7241C 45.5858 14.7241 45.8354 14.6649 46.064 14.5464C 46.2925 14.4237 46.4618 14.2607 46.5718 14.0576L 46.5718 12.877L 45.8862 12.877C 44.9679 12.877 44.4792 13.1943 44.4199 13.8291L 44.4136 13.937C 44.4136 14.1655 44.494 14.3538 44.6548 14.502C 44.8156 14.6501 45.0356 14.7241 45.3149 14.7241ZM 51.542 9.13184L 51.5991 9.8999C 52.0858 9.30322 52.7438 9.00488 53.5732 9.00488C 54.4577 9.00488 55.0649 9.354 55.395 10.0522C 55.8774 9.354 56.5651 9.00488 57.458 9.00488C 58.2028 9.00488 58.7572 9.22282 59.1211 9.65869C 59.485 10.0903 59.667 10.742 59.667 11.6138L 59.667 16L 57.8262 16L 57.8262 11.6201C 57.8262 11.2308 57.75 10.9473 57.5977 10.7695C 57.4453 10.5876 57.1766 10.4966 56.7915 10.4966C 56.2414 10.4966 55.8605 10.759 55.6489 11.2837L 55.6553 16L 53.8208 16L 53.8208 11.6265C 53.8208 11.2287 53.7425 10.9409 53.5859 10.7632C 53.4294 10.5854 53.1628 10.4966 52.7861 10.4966C 52.2656 10.4966 51.889 10.7124 51.6562 11.144L 51.6562 16L 49.8218 16L 49.8218 9.13184L 51.542 9.13184ZM 63.0186 16L 61.1777 16L 61.1777 9.13184L 63.0186 9.13184L 63.0186 16ZM 61.0698 7.35449C 61.0698 7.07943 61.1608 6.85303 61.3428 6.67529C 61.529 6.49756 61.7808 6.40869 62.0981 6.40869C 62.4113 6.40869 62.661 6.49756 62.8472 6.67529C 63.0334 6.85303 63.1265 7.07943 63.1265 7.35449C 63.1265 7.63379 63.0312 7.8623 62.8408 8.04004C 62.6546 8.21777 62.4071 8.30664 62.0981 8.30664C 61.7892 8.30664 61.5396 8.21777 61.3491 8.04004C 61.1629 7.8623 61.0698 7.63379 61.0698 7.35449Z" transform="translate(35 19)" fill="#F2F2F2" fill-opacity="0.6"/>
</g>
<g id="Balsamic">
<path d="M 15.3857 16L 15.3857 6.75781L 18.623 6.75781C 19.7445 6.75781 20.5951 6.97363 21.1748 7.40527C 21.7546 7.83268 22.0444 8.4611 22.0444 9.29053C 22.0444 9.74333 21.9281 10.1432 21.6953 10.4902C 21.4626 10.833 21.1388 11.0848 20.7241 11.2456C 21.1981 11.3641 21.5705 11.6032 21.8413 11.9629C 22.1164 12.3226 22.2539 12.7627 22.2539 13.2832C 22.2539 14.1719 21.9704 14.8447 21.4033 15.3018C 20.8363 15.7588 20.028 15.9915 18.9785 16L 15.3857 16ZM 17.29 11.9756L 17.29 14.4702L 18.9214 14.4702C 19.37 14.4702 19.7191 14.3644 19.9688 14.1528C 20.2227 13.937 20.3496 13.6408 20.3496 13.2642C 20.3496 12.4178 19.9116 11.9883 19.0356 11.9756L 17.29 11.9756ZM 17.29 10.6299L 18.6992 10.6299C 19.6598 10.613 20.1401 10.23 20.1401 9.48096C 20.1401 9.06201 20.0174 8.76156 19.772 8.57959C 19.5308 8.39339 19.1478 8.30029 18.623 8.30029L 17.29 8.30029L 17.29 10.6299ZM 27.5479 16C 27.4632 15.835 27.4019 15.6297 27.3638 15.3843C 26.9194 15.8794 26.3418 16.127 25.6309 16.127C 24.958 16.127 24.3994 15.9323 23.9551 15.543C 23.515 15.1536 23.2949 14.6628 23.2949 14.0703C 23.2949 13.3424 23.5636 12.7839 24.1011 12.3945C 24.6427 12.0052 25.4235 11.8084 26.4434 11.8042L 27.2876 11.8042L 27.2876 11.4106C 27.2876 11.0933 27.2051 10.8394 27.04 10.6489C 26.8792 10.4585 26.6232 10.3633 26.272 10.3633C 25.9631 10.3633 25.7197 10.4373 25.542 10.5854C 25.3685 10.7336 25.2817 10.9367 25.2817 11.1948L 23.4473 11.1948C 23.4473 10.797 23.57 10.4289 23.8154 10.0903C 24.0609 9.75179 24.4079 9.4873 24.8564 9.29688C 25.305 9.10221 25.8086 9.00488 26.3672 9.00488C 27.2135 9.00488 27.8843 9.21859 28.3794 9.646C 28.8787 10.0692 29.1284 10.6659 29.1284 11.436L 29.1284 14.4131C 29.1326 15.0648 29.2236 15.5578 29.4014 15.8921L 29.4014 16L 27.5479 16ZM 26.0308 14.7241C 26.3016 14.7241 26.5513 14.6649 26.7798 14.5464C 27.0083 14.4237 27.1776 14.2607 27.2876 14.0576L 27.2876 12.877L 26.6021 12.877C 25.6838 12.877 25.195 13.1943 25.1357 13.8291L 25.1294 13.937C 25.1294 14.1655 25.2098 14.3538 25.3706 14.502C 25.5314 14.6501 25.7515 14.7241 26.0308 14.7241ZM 32.4736 16L 30.6328 16L 30.6328 6.25L 32.4736 6.25L 32.4736 16ZM 37.7104 14.1021C 37.7104 13.8778 37.5983 13.7021 37.374 13.5752C 37.154 13.444 36.7985 13.3276 36.3076 13.2261C 34.6742 12.8833 33.8574 12.1893 33.8574 11.144C 33.8574 10.5347 34.1092 10.0269 34.6128 9.62061C 35.1206 9.21012 35.7829 9.00488 36.5996 9.00488C 37.4714 9.00488 38.1675 9.21012 38.688 9.62061C 39.2127 10.0311 39.4751 10.5643 39.4751 11.2202L 37.6406 11.2202C 37.6406 10.9578 37.556 10.742 37.3867 10.5728C 37.2174 10.3993 36.953 10.3125 36.5933 10.3125C 36.2843 10.3125 36.0452 10.3823 35.876 10.522C 35.7067 10.6616 35.6221 10.8394 35.6221 11.0552C 35.6221 11.2583 35.7173 11.4233 35.9077 11.5503C 36.1024 11.673 36.4282 11.7809 36.8853 11.874C 37.3423 11.9629 37.7274 12.0645 38.0405 12.1787C 39.0096 12.5342 39.4941 13.1499 39.4941 14.0259C 39.4941 14.6522 39.2254 15.16 38.688 15.5493C 38.1506 15.9344 37.4565 16.127 36.606 16.127C 36.0304 16.127 35.5184 16.0254 35.0698 15.8223C 34.6255 15.6149 34.2764 15.3335 34.0225 14.978C 33.7686 14.6183 33.6416 14.2311 33.6416 13.8164L 35.3809 13.8164C 35.3978 14.1423 35.5184 14.3919 35.7427 14.5654C 35.967 14.7389 36.2674 14.8257 36.644 14.8257C 36.9953 14.8257 37.2598 14.7601 37.4375 14.6289C 37.6195 14.4935 37.7104 14.3179 37.7104 14.1021ZM 44.6611 16C 44.5765 15.835 44.5151 15.6297 44.4771 15.3843C 44.0327 15.8794 43.4551 16.127 42.7441 16.127C 42.0713 16.127 41.5127 15.9323 41.0684 15.543C 40.6283 15.1536 40.4082 14.6628 40.4082 14.0703C 40.4082 13.3424 40.6769 12.7839 41.2144 12.3945C 41.756 12.0052 42.5368 11.8084 43.5566 11.8042L 44.4009 11.8042L 44.4009 11.4106C 44.4009 11.0933 44.3184 10.8394 44.1533 10.6489C 43.9925 10.4585 43.7365 10.3633 43.3853 10.3633C 43.0763 10.3633 42.833 10.4373 42.6553 10.5854C 42.4818 10.7336 42.395 10.9367 42.395 11.1948L 40.5605 11.1948C 40.5605 10.797 40.6833 10.4289 40.9287 10.0903C 41.1742 9.75179 41.5212 9.4873 41.9697 9.29688C 42.4183 9.10221 42.9219 9.00488 43.4805 9.00488C 44.3268 9.00488 44.9976 9.21859 45.4927 9.646C 45.992 10.0692 46.2417 10.6659 46.2417 11.436L 46.2417 14.4131C 46.2459 15.0648 46.3369 15.5578 46.5146 15.8921L 46.5146 16L 44.6611 16ZM 43.144 14.7241C 43.4149 14.7241 43.6646 14.6649 43.8931 14.5464C 44.1216 14.4237 44.2909 14.2607 44.4009 14.0576L 44.4009 12.877L 43.7153 12.877C 42.797 12.877 42.3083 13.1943 42.249 13.8291L 42.2427 13.937C 42.2427 14.1655 42.3231 14.3538 42.4839 14.502C 42.6447 14.6501 42.8647 14.7241 43.144 14.7241ZM 49.3711 9.13184L 49.4282 9.8999C 49.9149 9.30322 50.5729 9.00488 51.4023 9.00488C 52.2868 9.00488 52.894 9.354 53.2241 10.0522C 53.7065 9.354 54.3942 9.00488 55.2871 9.00488C 56.0319 9.00488 56.5863 9.22282 56.9502 9.65869C 57.3141 10.0903 57.4961 10.742 57.4961 11.6138L 57.4961 16L 55.6553 16L 55.6553 11.6201C 55.6553 11.2308 55.5791 10.9473 55.4268 10.7695C 55.2744 10.5876 55.0057 10.4966 54.6206 10.4966C 54.0705 10.4966 53.6896 10.759 53.478 11.2837L 53.4844 16L 51.6499 16L 51.6499 11.6265C 51.6499 11.2287 51.5716 10.9409 51.415 10.7632C 51.2585 10.5854 50.9919 10.4966 50.6152 10.4966C 50.0947 10.4966 49.7181 10.7124 49.4854 11.144L 49.4854 16L 47.6509 16L 47.6509 9.13184L 49.3711 9.13184ZM 60.8477 16L 59.0068 16L 59.0068 9.13184L 60.8477 9.13184L 60.8477 16ZM 58.8989 7.35449C 58.8989 7.07943 58.9899 6.85303 59.1719 6.67529C 59.3581 6.49756 59.6099 6.40869 59.9272 6.40869C 60.2404 6.40869 60.4901 6.49756 60.6763 6.67529C 60.8625 6.85303 60.9556 7.07943 60.9556 7.35449C 60.9556 7.63379 60.8604 7.8623 60.6699 8.04004C 60.4837 8.21777 60.2362 8.30664 59.9272 8.30664C 59.6183 8.30664 59.3687 8.21777 59.1782 8.04004C 58.992 7.8623 58.8989 7.63379 58.8989 7.35449ZM 65.2212 14.6479C 65.5597 14.6479 65.8348 14.5549 66.0464 14.3687C 66.258 14.1825 66.368 13.9349 66.3765 13.626L 68.0967 13.626C 68.0924 14.0915 67.9655 14.5189 67.7158 14.9082C 67.4661 15.2933 67.1234 15.5938 66.6875 15.8096C 66.2559 16.0212 65.7777 16.127 65.2529 16.127C 64.2712 16.127 63.4967 15.8159 62.9297 15.1938C 62.3626 14.5675 62.0791 13.7043 62.0791 12.604L 62.0791 12.4834C 62.0791 11.4255 62.3605 10.5812 62.9233 9.95068C 63.4862 9.32015 64.2585 9.00488 65.2402 9.00488C 66.0993 9.00488 66.7869 9.25033 67.3032 9.74121C 67.8237 10.2279 68.0882 10.8774 68.0967 11.6899L 66.3765 11.6899C 66.368 11.3345 66.258 11.0467 66.0464 10.8267C 65.8348 10.6024 65.5555 10.4902 65.2085 10.4902C 64.7811 10.4902 64.4574 10.6468 64.2373 10.96C 64.0215 11.2689 63.9136 11.7725 63.9136 12.4707L 63.9136 12.6611C 63.9136 13.3678 64.0215 13.8757 64.2373 14.1846C 64.4531 14.4935 64.7811 14.6479 65.2212 14.6479Z" transform="translate(64 -6)" fill="#F2F2F2" fill-opacity="0.5"/>
</g>
<g id="Group 2">
<g id="Ellipse">
<circle cx="50" cy="50" r="50" transform="translate(100 20)" fill="#2C3A4E"/>
</g>
<g id="Ellipse_2" filter="url(#filter0_d)">
<circle cx="24.5" cy="24.5" r="24.5" transform="translate(169 6)" fill="#37DB67"/>
</g>
<g id="Ellipse_3" filter="url(#filter1_d)">
<circle cx="17.5" cy="17.5" r="17.5" transform="translate(180 45)" fill="#2F80ED"/>
</g>
<g id="Ellipse_4">
<ellipse cx="8" cy="4.00137" rx="8" ry="4.00137" transform="matrix(0.707107 0.707107 -0.707107 0.707107 202.659 10)" fill="#3CEF70"/>
</g>
<g id="Group">
<g id="Ellipse_5">
<ellipse cx="119.5" cy="13" rx="119.5" ry="13" transform="translate(0 218)" fill="#F2F2F2" fill-opacity="0.2"/>
</g>
<g id="Ellipse_6">
<ellipse cx="24" cy="8" rx="24" ry="8" transform="translate(85 221)" fill="#4F4F4F" fill-opacity="0.03"/>
</g>
<g id="Me workng">
<g id="Rectangle 7">
<rect width="19" height="3" rx="1.5" transform="translate(100 123)" fill="#C4C4C4"/>
</g>
<g id="Rectangle 7.1">
<path d="M 0 1.5C 0 0.671573 0.671573 0 1.5 0L 18 0C 18.8284 0 19.5 0.671573 19.5 1.5C 19.5 2.32843 18.8284 3 18 3L 1.5 3C 0.671573 3 0 2.32843 0 1.5Z" transform="translate(99.5 121)" fill="#828282"/>
</g>
<g id="Rectangle 4">
<rect width="8" height="20" rx="4" transform="translate(96 209)" fill="#C4C4C4"/>
</g>
<g id="Rectangle 4.1">
<rect width="8" height="20" rx="4" transform="translate(114 208)" fill="#C4C4C4"/>
</g>
<g id="Rectangle 2">
<rect width="22" height="67" transform="translate(39 163)" fill="#C4C4C4"/>
</g>
<g id="Rectangle 2.1">
<rect width="22" height="69" transform="translate(184 163)" fill="#C4C4C4"/>
</g>
<g id="Group 3_2">
<g id="Rectangle 4_2">
<rect width="27" height="47" transform="translate(96 125)" fill="#BDBDBD"/>
</g>
<g id="Rectangle 4.4" filter="url(#filter2_d)">
<path d="M 0 0L 30.5231 0L 29.0154 41L 1.01562 41L 0 0Z" transform="translate(93.9844 135)" fill="#BDBDBD"/>
</g>
<g id="Rectangle 4.2">
<path d="M 3.08365 13.6562C 1.50323 6.65718 6.82479 0 14 0L 16 31L 7 31L 3.08365 13.6562Z" transform="translate(82 125)" fill="#BDBDBD"/>
</g>
<g id="Rectangle 4.5">
<path d="M 2.00373 11.8315C 0.955813 5.64385 5.72422 0 12 0L 12 31L 5.25 31L 2.00373 11.8315Z" transform="translate(135 125) scale(-1 1)" fill="#C4C4C4"/>
</g>
<g id="Group 2_2">
<g id="Subtract">
<path fill-rule="evenodd" clip-rule="evenodd" d="M 4 0C 1.79102 0 0 1.79077 0 4L 0 52C 0 54.2092 1.79102 56 4 56L 9.43457 56L 10.5596 19.0159C 10.6191 17.051 12.229 15.4893 14.1948 15.4893C 16.1714 15.4893 17.7861 17.0676 17.8311 19.0435L 18.6738 56L 24 56C 26.209 56 28 54.2092 28 52L 28 4C 28 1.79077 26.209 0 24 0L 4 0Z" transform="translate(95 164)" fill="#C4C4C4"/>
</g>
<g id="Group_2">
<g id="Rectangle 5">
<path d="M 0 0L 6 0L 6 2.83333C 6 5.59476 3.76142 7.83333 1 7.83333L 0 7.83333L 0 0Z" transform="translate(95 173)" fill="#BDBDBD"/>
</g>
<g id="Rectangle 5.1">
<path d="M 0 0L 6 0L 6 2.83333C 6 5.59476 3.76142 7.83333 1 7.83333L 0 7.83333L 0 0Z" transform="translate(123 173) scale(-1 1)" fill="#BDBDBD"/>
</g>
</g>
</g>
<g id="Rectangle 5_2" filter="url(#filter3_d)">
<rect width="12" height="2" transform="translate(94 218)" fill="#C4C4C4"/>
</g>
<g id="Rectangle 5.1_2" filter="url(#filter4_d)">
<rect width="12" height="2" transform="translate(112 218)" fill="#C4C4C4"/>
</g>
</g>
<g id="Group 9">
<g id="Rectangle 3.2">
<path d="M 0 4.5C 0 2.01472 2.01472 0 4.5 0L 5.5 0C 7.98528 0 10 2.01472 10 4.5C 10 6.98528 7.98528 9 5.5 9L 4.5 9C 2.01472 9 0 6.98528 0 4.5Z" transform="translate(113 221)" fill="#828282"/>
</g>
<g id="Rectangle 3.3">
<rect width="12" height="5" rx="2.5" transform="translate(112 225)" fill="#828282"/>
</g>
<g id="Group 7.1">
<g id="Ellipse_7" filter="url(#filter5_d)">
<g mask="url(#path27_ins)" transform="matrix(0.952474 -0.304618 0.608216 0.793771 116 225.61)">
<ellipse cx="1.00142" cy="1.50541" rx="1.00142" ry="1.50541" stroke-width="0.4" stroke="#333333"/>
</g>
</g>
<g id="Ellipse_8" filter="url(#filter6_d)">
<g mask="url(#path28_ins)" transform="matrix(0.936944 0.34948 -0.666346 0.745642 119.157 225)">
<ellipse cx="0.983745" cy="1.54862" rx="0.983745" ry="1.54862" stroke-width="0.4" stroke="#333333"/>
</g>
</g>
</g>
</g>
<g id="Group 8">
<g id="Rectangle 3.4">
<path d="M 0 4.5C 0 2.01472 2.01472 0 4.5 0L 5.5 0C 7.98528 0 10 2.01472 10 4.5C 10 6.98528 7.98528 9 5.5 9L 4.5 9C 2.01472 9 0 6.98528 0 4.5Z" transform="translate(95 221)" fill="#828282"/>
</g>
<g id="Rectangle 3.5">
<rect width="12" height="5" rx="2.5" transform="translate(94 225)" fill="#828282"/>
</g>
<g id="Group 7.2">
<g id="Ellipse_9" filter="url(#filter7_d)">
<g mask="url(#path30_ins)" transform="matrix(0.952474 -0.304618 0.608216 0.793771 98 225.61)">
<ellipse cx="1.00142" cy="1.50541" rx="1.00142" ry="1.50541" stroke-width="0.4" stroke="#333333"/>
</g>
</g>
<g id="Ellipse_10" filter="url(#filter8_d)">
<g mask="url(#path31_ins)" transform="matrix(0.936944 0.34948 -0.666346 0.745642 101.157 225)">
<ellipse cx="0.983745" cy="1.54862" rx="0.983745" ry="1.54862" stroke-width="0.4" stroke="#333333"/>
</g>
</g>
</g>
</g>
<g id="Rectangle 6" filter="url(#filter9_d)">
<path d="M 0.885876 1.66954L 8.28628 0L 8.28628 3.33908L 9.04975e-06 2.33573L 0.885876 1.66954Z" transform="matrix(0.707107 0.707107 -0.707107 0.707107 101.361 121)" fill="#828282"/>
</g>
<g id="Group 12">
<g id="Group 10.1">
<g id="Ellipse_11">
<path d="M 2 1C 2 1.55228 1.55228 2 1 2C 0.447715 2 0 1.55228 0 1C 0 0.447715 0.447715 0 1 0C 1.55228 0 2 0.447715 2 1Z" transform="translate(108.675 131.946)" fill="#C4C4C4"/>
</g>
<g id="Ellipse_12">
<path d="M 1 0.5C 1 0.776142 0.776142 1 0.5 1C 0.223858 1 0 0.776142 0 0.5C 0 0.223858 0.223858 0 0.5 0C 0.776142 0 1 0.223858 1 0.5Z" transform="translate(110.213 132.453) scale(-1 1)" fill="#828282"/>
</g>
</g>
<g id="Rectangle 5_3" filter="url(#filter10_d)">
<path d="M 0 2C 0 0.895431 0.895431 0 2 0L 41 0C 42.1046 0 43 0.895431 43 2L 43 27L 0 27L 0 2Z" transform="translate(88 133)" fill="#4F4F4F"/>
</g>
</g>
<g id="Rectangle 6.1" filter="url(#filter11_d)">
<path d="M 0.885876 1.66954L 8.28628 0L 8.28628 3.33908L 9.04975e-06 2.33573L 0.885876 1.66954Z" transform="matrix(-0.707107 0.707107 0.707107 0.707107 117.859 121)" fill="#828282"/>
</g>
<g id="Group 10">
<g id="Ellipse_13">
<path d="M 2 1C 2 1.55228 1.55228 2 1 2C 0.447715 2 0 1.55228 0 1C 0 0.447715 0.447715 0 1 0C 1.55228 0 2 0.447715 2 1Z" transform="translate(108.675 127.946)" fill="#C4C4C4"/>
</g>
<g id="Ellipse_14">
<path d="M 1 0.5C 1 0.776142 0.776142 1 0.5 1C 0.223858 1 0 0.776142 0 0.5C 0 0.223858 0.223858 0 0.5 0C 0.776142 0 1 0.223858 1 0.5Z" transform="translate(110.213 128.453) scale(-1 1)" fill="#828282"/>
</g>
</g>
<g id="Group 10.1_2">
<g id="Ellipse_15">
<path d="M 2 1C 2 1.55228 1.55228 2 1 2C 0.447715 2 0 1.55228 0 1C 0 0.447715 0.447715 0 1 0C 1.55228 0 2 0.447715 2 1Z" transform="translate(108.675 164.946)" fill="#C4C4C4"/>
</g>
<g id="Ellipse_16">
<path d="M 1 0.5C 1 0.776142 0.776142 1 0.5 1C 0.223858 1 0 0.776142 0 0.5C 0 0.223858 0.223858 0 0.5 0C 0.776142 0 1 0.223858 1 0.5Z" transform="translate(110.213 165.453) scale(-1 1)" fill="#828282"/>
</g>
</g>
<g id="Group 10.2">
<g id="Ellipse_17">
<path d="M 2 1C 2 1.55228 1.55228 2 1 2C 0.447715 2 0 1.55228 0 1C 0 0.447715 0.447715 0 1 0C 1.55228 0 2 0.447715 2 1Z" transform="translate(108.675 169.946)" fill="#C4C4C4"/>
</g>
<g id="Ellipse_18">
<path d="M 1 0.5C 1 0.776142 0.776142 1 0.5 1C 0.223858 1 0 0.776142 0 0.5C 0 0.223858 0.223858 0 0.5 0C 0.776142 0 1 0.223858 1 0.5Z" transform="translate(110.213 170.453) scale(-1 1)" fill="#828282"/>
</g>
</g>
<g id="Rectangle 10">
<rect width="16" height="1" transform="translate(65 159)" fill="#4F4F4F"/>
</g>
<g id="Group 11">
<g id="Rectangle 10.1">
<rect width="16" height="1" transform="translate(31 144)" fill="#4F4F4F"/>
</g>
<g id="Rectangle 11">
<rect width="14" height="15" transform="translate(32 145)" fill="#828282"/>
</g>
</g>
<g id="Group 2_3">
<g id="Rectangle 5.1_3" filter="url(#filter12_d)">
<path d="M 0 2C 0 0.895431 0.895431 0 2 0L 43 0C 44.1046 0 45 0.895431 45 2L 0 2Z" transform="translate(87 158)" fill="white"/>
</g>
<g id="Rectangle" filter="url(#filter13_d)">
<rect width="193" height="3.71212" rx="1.85606" transform="translate(24 160)" fill="#C4C4C4"/>
</g>
</g>
<g id="Group 14">
<g id="Group 13">
<g id="Rectangle 11_2">
<rect width="30" height="2" transform="translate(94 170)" fill="#C4C4C4"/>
</g>
<g id="Rectangle 12">
<path fill-rule="evenodd" clip-rule="evenodd" d="M 5.5 0.5L 0.5 0.5L 0.5 3.5L 5.5 3.5L 5.5 0.5Z" stroke-miterlimit="8" transform="translate(107 169)" stroke="#828282"/>
</g>
</g>
<g id="Rectangle 13">
<path d="M 0 0L 2 0L 2 1L 0 1L 0 0Z" transform="translate(111.5 170.5)" fill="#C4C4C4"/>
</g>
</g>
<g id="Ellipse 2">
<path d="M 21 3.16667C 21 4.17919 15.5228 5 10 5C 4.47715 5 0 4.17919 0 3.16667C 0 2.15414 4.97715 0 10.5 0C 16.0228 0 21 2.15414 21 3.16667Z" transform="translate(99 98)" fill="#BDBDBD"/>
</g>
<g id="Group 16">
<g id="Rectangle 3.1">
<path d="M 2.18619e-05 3.318C 3.77616e-05 1.76414 1.60607 0.730012 3.02065 1.37301L 5.0275 2.28522C 5.61975 2.55443 6 3.14496 6 3.79553C 6 4.71178 5.25723 5.45455 4.34098 5.45455L 2.13654 5.45455C 0.956567 5.45455 9.78793e-06 4.49798 2.18619e-05 3.318Z" transform="matrix(0 1 -1 0 125.455 108)" fill="#BDBDBD"/>
</g>
<g id="Rectangle 3.2_2">
<path d="M 2.18619e-05 3.318C 3.77616e-05 1.76414 1.60607 0.730012 3.02065 1.37301L 5.0275 2.28522C 5.61975 2.55443 6 3.14496 6 3.79553C 6 4.71178 5.25723 5.45455 4.34098 5.45455L 2.13654 5.45455C 0.956567 5.45455 9.78793e-06 4.49798 2.18619e-05 3.318Z" transform="matrix(0 1 1 0 93 108)" fill="#BDBDBD"/>
</g>
<g id="Ellipse_19">
<path d="M 25 11.2192C 25 20.1768 19.4036 29 12.5 29C 5.59644 29 0 20.1768 0 11.2192C 0 2.26157 5.59644 0 12.5 0C 19.4036 0 25 2.26157 25 11.2192Z" transform="translate(97 98)" fill="#C4C4C4"/>
</g>
<g id="glasses">
<g id="Group_3">
<g id="Vector">
<path d="M 20.9652 0.506439C 20.9608 0.440449 20.9288 0.398943 20.8644 0.382504C 20.8189 0.370957 20.7739 0.358227 20.7281 0.351178C 20.0737 0.24934 19.4185 0.14989 18.7574 0.10449C 18.2295 0.068109 17.7008 0.0450149 17.1716 0.0214799C 16.1533 -0.0237119 15.137 -0.00161496 14.1242 0.125265C 13.5054 0.202803 12.8929 0.313777 12.2978 0.50426C 11.9971 0.600579 11.7015 0.712944 11.4004 0.807687C 10.9305 0.955088 10.4483 1.02147 9.9607 0.930858C 9.66752 0.876252 9.37825 0.793196 9.09395 0.702C 8.57948 0.537163 8.06536 0.374667 7.53169 0.277397C 6.494 0.0875399 5.44843 0.000379408 4.47358 0.0107673C 3.67892 0.0119266 2.96508 0.0387775 2.25438 0.123318C 1.67154 0.192601 1.08949 0.269721 0.507414 0.348024C 0.383736 0.364882 0.262818 0.400891 0.141714 0.432588C 0.0769141 0.449422 0.034042 0.492063 0.0318656 0.563526C 0.0206093 0.904146 0.00874457 1.2446 6.24927e-05 1.58564C -0.0011076 1.63693 0.0115294 1.68859 0.0194392 1.73988C 0.0259449 1.78313 0.0498616 1.81308 0.0917509 1.83129C 0.136191 1.85048 0.181848 1.86985 0.221374 1.89686C 0.41245 2.02879 0.504512 2.2285 0.577807 2.4358C 0.62997 2.58401 0.663762 2.73825 0.707009 2.88939C 0.733874 2.98357 0.769445 3.07556 0.790974 3.17069C 0.89193 3.61542 0.985795 4.0621 1.08911 4.50611C 1.18771 4.92977 1.31613 5.34403 1.52062 5.73165C 1.74902 6.16467 2.07464 6.49632 2.53675 6.68696C 2.81652 6.80246 3.10755 6.87607 3.4059 6.92308C 3.94053 7.00685 4.47835 7.01705 5.01772 6.97828C 5.56383 6.93914 6.103 6.85729 6.62838 6.6999C 7.01839 6.58283 7.38709 6.41996 7.70004 6.15607C 8.17779 5.7524 8.56247 5.27317 8.85784 4.72347C 9.15304 4.17454 9.36007 3.59084 9.54581 2.99908C 9.59935 2.82917 9.64972 2.65826 9.71178 2.49145C 9.80344 2.24576 9.98109 2.09388 10.2456 2.05353C 10.3298 2.0406 10.4171 2.03709 10.5025 2.04199C 10.7009 2.05353 10.8918 2.09504 11.0242 2.25927C 11.0819 2.33074 11.1352 2.40983 11.1723 2.49342C 11.2447 2.65612 11.3134 2.82135 11.3672 2.99051C 11.6003 3.72197 11.9097 4.41891 12.3009 5.08095C 12.6253 5.63109 13.0532 6.07547 13.6207 6.382C 14.0218 6.59889 14.4509 6.73711 14.8978 6.82325C 15.57 6.95245 16.2488 6.98413 16.9313 6.9544C 17.3438 6.93676 17.7516 6.88468 18.1484 6.76726C 18.5554 6.64627 18.9134 6.44973 19.1809 6.11301C 19.354 5.89572 19.4824 5.65334 19.588 5.39847C 19.8104 4.86129 19.9534 4.30102 20.0827 3.73641C 20.1459 3.4603 20.2111 3.18447 20.2791 2.90921C 20.3147 2.76531 20.3594 2.62396 20.3996 2.48148C 20.4371 2.34797 20.4692 2.21248 20.5545 2.09699C 20.6402 1.98089 20.728 1.86716 20.871 1.81684C 20.9334 1.79472 20.9651 1.75166 20.9785 1.69293C 20.9888 1.6475 20.9998 1.60131 20.9998 1.55568C 21.0002 1.35189 21.0002 1.1481 20.9943 0.944678C 20.9897 0.798297 20.9743 0.652658 20.9652 0.506439ZM 0.878544 1.15148C 0.656086 1.15148 0.475892 1.10764 0.475892 1.05361C 0.475892 0.999144 0.656086 0.955344 0.878544 0.955344C 1.10063 0.955344 1.28063 0.999191 1.28063 1.05361C 1.28063 1.10761 1.10063 1.15148 0.878544 1.15148ZM 8.65497 3.30645C 8.51393 3.90127 8.28136 4.45881 7.96998 4.98541C 7.80003 5.27319 7.60723 5.54256 7.36263 5.77357C 7.03978 6.07897 6.65114 6.25906 6.22458 6.3699C 5.36095 6.59382 4.48748 6.64981 3.60392 6.51867C 3.43084 6.49284 3.26013 6.44778 3.08981 6.40514C 2.73911 6.31587 2.47298 6.11347 2.27065 5.81512C 2.04681 5.48466 1.90947 5.12176 1.8174 4.7384C 1.69728 4.23802 1.6297 3.72941 1.57873 3.21818C 1.54889 2.92159 1.55462 2.62621 1.59157 2.33118C 1.61013 2.18283 1.62221 2.03209 1.65619 1.8868C 1.77631 1.36998 2.09876 1.0407 2.61718 0.906001C 3.09098 0.783063 3.57366 0.710626 4.06089 0.671486C 4.42226 0.642108 4.78461 0.627245 5.01854 0.613727C 5.85015 0.624115 6.54839 0.676564 7.23537 0.833564C 7.51594 0.89719 7.80006 0.954555 8.05673 1.09004C 8.18298 1.15658 8.30549 1.23568 8.41574 1.32574C 8.59769 1.47432 8.69057 1.67693 8.72949 1.90597C 8.81032 2.37853 8.76424 2.84426 8.65497 3.30645ZM 19.4154 3.08583C 19.3972 3.80419 19.2751 4.50546 19.0166 5.17963C 18.9123 5.45257 18.7704 5.70473 18.5571 5.90949C 18.3192 6.13814 18.0232 6.25913 17.7087 6.3437C 17.3135 6.4498 16.9093 6.47528 16.5022 6.47879C 15.8878 6.48426 15.2824 6.40832 14.6822 6.28183C 14.0875 6.1566 13.6133 5.84802 13.2359 5.38092C 12.7522 4.78188 12.4425 4.10219 12.269 3.35818C 12.1887 3.01441 12.1212 2.6685 12.1299 2.31358C 12.1338 2.16089 12.1497 2.00663 12.1777 1.85607C 12.2469 1.481 12.4792 1.23607 12.8293 1.09516C 13.181 0.954207 13.5489 0.86809 13.9199 0.795236C 14.3329 0.713988 14.7494 0.653307 15.1694 0.626503C 15.4975 0.605356 15.8262 0.596545 16.0486 0.586946C 16.9286 0.629633 17.698 0.693815 18.446 0.905259C 18.5836 0.944005 18.7151 1.00608 18.8452 1.06657C 18.9685 1.12375 19.0633 1.21731 19.1245 1.33851C 19.1921 1.47263 19.2616 1.60669 19.315 1.7463C 19.3775 1.90998 19.3913 2.08537 19.398 2.259C 19.4086 2.53455 19.4225 2.8106 19.4154 3.08583ZM 20.1097 1.15148C 19.8876 1.15148 19.7074 1.10764 19.7074 1.05361C 19.7074 0.999144 19.8876 0.955344 20.1097 0.955344C 20.3317 0.955344 20.5119 0.999191 20.5119 1.05361C 20.5119 1.10761 20.3317 1.15148 20.1097 1.15148Z" transform="translate(99 111)" fill="white"/>
</g>
</g>
</g>
</g>
<g id="Ellipse 4">
<path d="M 2.07619 0.804688C 2.07619 1.08083 1.70742 1 1.15513 1C 0.60285 1 0 0.580342 0 0.304199C 0 0.0280568 0.60285 0 1.15513 0C 1.70742 0 2.07619 0.528545 2.07619 0.804688Z" transform="translate(107 117)" fill="#C4C4C4"/>
</g>
<g id="Ellipse 4.1">
<path d="M 1.99987 0.804687C 1.99987 1.08083 1.6311 1 1.07881 1C 0.526527 1 0 0.580586 0 0.304443C 0 0.028301 0.526527 0 1.07881 0C 1.6311 0 1.99987 0.528545 1.99987 0.804687Z" transform="translate(112 117) scale(-1 1)" fill="#C4C4C4"/>
</g>
<g id="Ellipse 5.1">
<path d="M 17.0001 4.94356C 17.0001 7.67381 12.7467 2.47179 7.50001 2.47179C 2.25333 2.47179 0 7.46609 0 4.73584C 0 2.00559 2.25342 0 7.5001 0C 12.7468 0 17.0001 2.2133 17.0001 4.94356Z" transform="translate(102 102.264)" fill="#C4C4C4"/>
</g>
<g id="Ellipse 6">
<ellipse cx="3" cy="2" rx="3" ry="2" transform="matrix(0.866025 -0.5 0.5 0.866025 99 105)" fill="#C4C4C4"/>
</g>
<g id="Ellipse 6.1">
<ellipse cx="4.78717" cy="2" rx="4.78717" ry="2" transform="translate(101 103)" fill="#C4C4C4"/>
</g>
<g id="Group 17">
<g id="Ellipse 5">
<ellipse cx="7.00007" cy="2.57143" rx="7.00007" ry="2.57143" transform="translate(102 104.857)" fill="#C4C4C4"/>
</g>
<g id="man-hair-2">
<g id="Subtract_2">
<path fill-rule="evenodd" clip-rule="evenodd" d="M 12.8258 0.00905983C 12.9088 0.00393288 16.2335 -0.157688 19.8556 2.36575C 23.2428 4.72512 25.2521 9.07718 24.9752 13.4546C 24.9606 13.6866 24.9401 13.9163 24.9137 14.1436C 21.3424 11.1463 16.9845 9.38552 12.2804 9.38552C 7.85658 9.38552 3.7389 10.9424 0.293587 13.6206C -0.27282 10.2644 -0.01989 7.68411 1.05433 5.92337C 2.14564 4.13552 3.75257 3.74881 4.50257 3.668C 6.31165 -0.275608 12.5485 -0.00607689 12.8258 0.00905983Z" transform="translate(97 94.571)" fill="black"/>
</g>
</g>
<g id="Subtract_3">
<path fill-rule="evenodd" clip-rule="evenodd" d="M 24.9999 12.4009C 24.2265 8.42335 22.1357 3.05153 16.4902 2.06373C 16.4902 2.06373 18.3613 1.19117 19.7167 1.73439C 20.0693 1.93287 20.2685 2.06862 20.2685 2.06862C 20.1005 1.92238 19.914 1.81349 19.7167 1.73439C 18.2563 0.912122 14.1703 -0.982165 10.7743 1.28639C 10.7743 1.28639 10.3486 0.388928 11.5102 1.23648e-05C 11.5102 1.23648e-05 5.39495 -0.0419798 5.12835 4.76832C 5.12835 4.76832 -0.140205 5.4358 0.00286184 12.8567C 2.6513 9.75563 7.35101 7.69362 12.707 7.69362C 17.7958 7.69362 22.2924 9.55519 24.9999 12.4009Z" transform="translate(97.0005 93.2856)" fill="black"/>
</g>
<g id="Subtract_4">
<path fill-rule="evenodd" clip-rule="evenodd" d="M 23 8.82228C 21.8276 5.73536 19.687 2.76979 15.7803 2.06154C 15.7803 2.06154 17.584 1.18995 18.8901 1.73243C 19.2295 1.93043 19.4219 2.06617 19.4219 2.06617C 19.2598 1.92018 19.0801 1.81129 18.8901 1.73243C 17.4829 0.911389 13.5444 -0.980945 10.271 1.28492C 10.271 1.28492 9.86035 0.38844 10.9805 1.2392e-05C 10.9805 1.2392e-05 5.08594 -0.0419798 4.8291 4.76295C 4.8291 4.76295 0.73877 5.30006 0 10.7683C 2.5249 7.39503 7.14014 5.13673 12.4146 5.13673C 16.5947 5.13673 20.3604 6.55494 23 8.82228ZM 3.21387 25.6109C 3.23486 25.6455 3.25635 25.6799 3.27783 25.7141C 3.27783 25.7141 3.27393 25.6909 3.26709 25.646C 3.24951 25.6343 3.23145 25.6226 3.21387 25.6109Z" transform="translate(119 108.714) scale(-1)" fill="black"/>
</g>
</g>
<g id="Rectangle 11_3">
<path d="M 0 1L 0 0L 2 4L 2 5L 0 1Z" transform="translate(97 107.5)" fill="white"/>
</g>
<g id="Rectangle 11.1">
<path d="M 0 1L 0 0L 2.5 4.5L 2 5L 0 1Z" transform="translate(122 107.5) scale(-1 1)" fill="white"/>
</g>
<g id="Vector_2">
<path d="M 0 0L 2 0.5L 3.5 0.5L 5 0.5" stroke-width="0.2" transform="translate(107 122.5)" stroke="black"/>
</g>
<g id="Vector 2">
<path d="M 0 0L 0 2.5L 1.5 3.5" stroke-width="0.4" transform="translate(109 116)" stroke="#828282"/>
</g>
<g id="Group 15">
<g id="Group 6">
<g id="Group 5">
<g id="Group 5_2">
<g id="Rectangle 3" filter="url(#filter14_d)">
<rect width="93" height="50" transform="translate(123 93)" fill="#C4C4C4"/>
</g>
</g>
<g id="Group 4">
<g id="Rectangle 3.1_2" filter="url(#filter15_d)">
<rect width="20" height="37" transform="translate(159 121)" fill="#828282"/>
</g>
<g id="Rectangle 3.2_3">
<rect width="41" height="2" transform="translate(149 158)" fill="#828282"/>
</g>
</g>
</g>
<g id="Rectangle 3.3_2" filter="url(#filter16_d)">
<path d="M 0 4C 0 1.79086 1.79086 0 4 0C 6.20914 0 8 1.79086 8 4L 8 27L 0 27L 0 4Z" transform="translate(165 131)" fill="#C4C4C4"/>
</g>
</g>
<g id="Rectangle 8">
<rect width="28" height="9" transform="translate(179 131)" fill="#4F4F4F"/>
</g>
<g id="Rectangle 8.1">
<rect width="28" height="9" transform="translate(131 131)" fill="#4F4F4F"/>
</g>
<g id="Rectangle 9">
<rect width="1" height="3" transform="translate(185 134)" fill="#828282"/>
</g>
<g id="Rectangle 9.1">
<rect width="1" height="3" transform="translate(189 134)" fill="#828282"/>
</g>
<g id="Rectangle 9.2">
<rect width="1" height="3" transform="translate(193 134)" fill="#828282"/>
</g>
<g id="Ellipse_20">
<circle cx="0.5" cy="0.5" r="0.5" transform="translate(142 135)" fill="#C4C4C4"/>
</g>
<g id="Ellipse_21">
<circle cx="0.5" cy="0.5" r="0.5" transform="translate(147 135)" fill="#C4C4C4"/>
</g>
</g>
</g>
</g>
</g>
<g id="UX">
<path d="M 29.6377 37.6719L 29.6377 51.7197C 29.6377 54.0537 28.9053 55.8994 27.4404 57.2568C 25.9854 58.6143 23.9932 59.293 21.4639 59.293C 18.9736 59.293 16.9961 58.6338 15.5312 57.3154C 14.0664 55.9971 13.3193 54.1855 13.29 51.8809L 13.29 37.6719L 17.6846 37.6719L 17.6846 51.749C 17.6846 53.1455 18.0166 54.166 18.6807 54.8105C 19.3545 55.4453 20.2822 55.7627 21.4639 55.7627C 23.9346 55.7627 25.1895 54.4639 25.2285 51.8662L 25.2285 37.6719L 29.6377 37.6719ZM 40.873 45.0254L 44.8721 37.6719L 49.9258 37.6719L 43.7148 48.248L 50.0869 59L 44.9746 59L 40.873 51.5293L 36.7715 59L 31.6592 59L 38.0312 48.248L 31.8203 37.6719L 36.874 37.6719L 40.873 45.0254Z" transform="translate(119 19)" fill="white"/>
</g>
<g id="UI">
<path d="M 20.0293 3.78125L 20.0293 13.1465C 20.0293 14.7025 19.541 15.9329 18.5645 16.8379C 17.5944 17.7428 16.2663 18.1953 14.5801 18.1953C 12.9199 18.1953 11.6016 17.7559 10.625 16.877C 9.64844 15.998 9.15039 14.7904 9.13086 13.2539L 9.13086 3.78125L 12.0605 3.78125L 12.0605 13.166C 12.0605 14.097 12.2819 14.7773 12.7246 15.207C 13.1738 15.6302 13.7923 15.8418 14.5801 15.8418C 16.2272 15.8418 17.0638 14.9759 17.0898 13.2441L 17.0898 3.78125L 20.0293 3.78125ZM 25.5469 18L 22.6172 18L 22.6172 3.78125L 25.5469 3.78125L 25.5469 18Z" transform="translate(176 19)" fill="white"/>
</g>
<g id="FED">
<path d="M 14.3301 12.5137L 10.9551 12.5137L 10.9551 16L 9.19727 16L 9.19727 7.46875L 14.752 7.46875L 14.752 8.89258L 10.9551 8.89258L 10.9551 11.0957L 14.3301 11.0957L 14.3301 12.5137ZM 20.9043 12.3027L 17.5293 12.3027L 17.5293 14.5879L 21.4902 14.5879L 21.4902 16L 15.7715 16L 15.7715 7.46875L 21.4785 7.46875L 21.4785 8.89258L 17.5293 8.89258L 17.5293 10.9258L 20.9043 10.9258L 20.9043 12.3027ZM 22.5215 16L 22.5215 7.46875L 25.1465 7.46875C 25.8965 7.46875 26.5664 7.63867 27.1562 7.97852C 27.75 8.31445 28.2129 8.79492 28.5449 9.41992C 28.877 10.041 29.043 10.748 29.043 11.541L 29.043 11.9336C 29.043 12.7266 28.8789 13.4316 28.5508 14.0488C 28.2266 14.666 27.7676 15.1445 27.1738 15.4844C 26.5801 15.8242 25.9102 15.9961 25.1641 16L 22.5215 16ZM 24.2793 8.89258L 24.2793 14.5879L 25.1289 14.5879C 25.8164 14.5879 26.3418 14.3633 26.7051 13.9141C 27.0684 13.4648 27.2539 12.8223 27.2617 11.9863L 27.2617 11.5352C 27.2617 10.668 27.082 10.0117 26.7227 9.56641C 26.3633 9.11719 25.8379 8.89258 25.1465 8.89258L 24.2793 8.89258Z" transform="translate(178 52)" fill="white"/>
</g>
</g>
</g>
<defs>
<filter id="filter0_d" x="165" y="6" width="57" height="57" filterUnits="userSpaceOnUse" color-interpolation-filters="sRGB">
<feFlood flood-opacity="0" result="BackgroundImageFix"/>
<feColorMatrix in="SourceAlpha" type="matrix" values="0 0 0 0 0 0 0 0 0 0 0 0 0 0 0 0 0 0 255 0"/>
<feOffset dy="4"/>
<feGaussianBlur stdDeviation="2"/>
<feColorMatrix type="matrix" values="0 0 0 0 0 0 0 0 0 0 0 0 0 0 0 0 0 0 0.25 0"/>
<feBlend mode="normal" in2="BackgroundImageFix" result="effect1_dropShadow"/>
<feBlend mode="normal" in="SourceGraphic" in2="effect1_dropShadow" result="shape"/>
</filter>
<filter id="filter1_d" x="176" y="45" width="43" height="43" filterUnits="userSpaceOnUse" color-interpolation-filters="sRGB">
<feFlood flood-opacity="0" result="BackgroundImageFix"/>
<feColorMatrix in="SourceAlpha" type="matrix" values="0 0 0 0 0 0 0 0 0 0 0 0 0 0 0 0 0 0 255 0"/>
<feOffset dy="4"/>
<feGaussianBlur stdDeviation="2"/>
<feColorMatrix type="matrix" values="0 0 0 0 0 0 0 0 0 0 0 0 0 0 0 0 0 0 0.25 0"/>
<feBlend mode="normal" in2="BackgroundImageFix" result="effect1_dropShadow"/>
<feBlend mode="normal" in="SourceGraphic" in2="effect1_dropShadow" result="shape"/>
</filter>
<filter id="filter2_d" x="89.9844" y="135" width="38.5231" height="49" filterUnits="userSpaceOnUse" color-interpolation-filters="sRGB">
<feFlood flood-opacity="0" result="BackgroundImageFix"/>
<feColorMatrix in="SourceAlpha" type="matrix" values="0 0 0 0 0 0 0 0 0 0 0 0 0 0 0 0 0 0 255 0"/>
<feOffset dy="4"/>
<feGaussianBlur stdDeviation="2"/>
<feColorMatrix type="matrix" values="0 0 0 0 0 0 0 0 0 0 0 0 0 0 0 0 0 0 0.25 0"/>
<feBlend mode="normal" in2="BackgroundImageFix" result="effect1_dropShadow"/>
<feBlend mode="normal" in="SourceGraphic" in2="effect1_dropShadow" result="shape"/>
</filter>
<filter id="filter3_d" x="90" y="214" width="20" height="10" filterUnits="userSpaceOnUse" color-interpolation-filters="sRGB">
<feFlood flood-opacity="0" result="BackgroundImageFix"/>
<feColorMatrix in="SourceAlpha" type="matrix" values="0 0 0 0 0 0 0 0 0 0 0 0 0 0 0 0 0 0 255 0"/>
<feOffset/>
<feGaussianBlur stdDeviation="2"/>
<feColorMatrix type="matrix" values="0 0 0 0 0 0 0 0 0 0 0 0 0 0 0 0 0 0 0.25 0"/>
<feBlend mode="normal" in2="BackgroundImageFix" result="effect1_dropShadow"/>
<feBlend mode="normal" in="SourceGraphic" in2="effect1_dropShadow" result="shape"/>
</filter>
<filter id="filter4_d" x="108" y="214" width="20" height="10" filterUnits="userSpaceOnUse" color-interpolation-filters="sRGB">
<feFlood flood-opacity="0" result="BackgroundImageFix"/>
<feColorMatrix in="SourceAlpha" type="matrix" values="0 0 0 0 0 0 0 0 0 0 0 0 0 0 0 0 0 0 255 0"/>
<feOffset/>
<feGaussianBlur stdDeviation="2"/>
<feColorMatrix type="matrix" values="0 0 0 0 0 0 0 0 0 0 0 0 0 0 0 0 0 0 0.25 0"/>
<feBlend mode="normal" in2="BackgroundImageFix" result="effect1_dropShadow"/>
<feBlend mode="normal" in="SourceGraphic" in2="effect1_dropShadow" result="shape"/>
</filter>
<filter id="filter5_d" x="112.547" y="225.266" width="10.6443" height="10.4671" filterUnits="userSpaceOnUse" color-interpolation-filters="sRGB">
<feFlood flood-opacity="0" result="BackgroundImageFix"/>
<feColorMatrix in="SourceAlpha" type="matrix" values="0 0 0 0 0 0 0 0 0 0 0 0 0 0 0 0 0 0 255 0"/>
<feOffset dy="4"/>
<feGaussianBlur stdDeviation="2"/>
<feColorMatrix type="matrix" values="0 0 0 0 0 0 0 0 0 0 0 0 0 0 0 0 0 0 0.25 0"/>
<feBlend mode="normal" in2="BackgroundImageFix" result="effect1_dropShadow"/>
<feBlend mode="normal" in="SourceGraphic" in2="effect1_dropShadow" result="shape"/>
</filter>
<filter id="filter6_d" x="113.663" y="225.293" width="10.7673" height="10.4102" filterUnits="userSpaceOnUse" color-interpolation-filters="sRGB">
<feFlood flood-opacity="0" result="BackgroundImageFix"/>
<feColorMatrix in="SourceAlpha" type="matrix" values="0 0 0 0 0 0 0 0 0 0 0 0 0 0 0 0 0 0 255 0"/>
<feOffset dy="4"/>
<feGaussianBlur stdDeviation="2"/>
<feColorMatrix type="matrix" values="0 0 0 0 0 0 0 0 0 0 0 0 0 0 0 0 0 0 0.25 0"/>
<feBlend mode="normal" in2="BackgroundImageFix" result="effect1_dropShadow"/>
<feBlend mode="normal" in="SourceGraphic" in2="effect1_dropShadow" result="shape"/>
</filter>
<filter id="filter7_d" x="94.5474" y="225.266" width="10.6443" height="10.4671" filterUnits="userSpaceOnUse" color-interpolation-filters="sRGB">
<feFlood flood-opacity="0" result="BackgroundImageFix"/>
<feColorMatrix in="SourceAlpha" type="matrix" values="0 0 0 0 0 0 0 0 0 0 0 0 0 0 0 0 0 0 255 0"/>
<feOffset dy="4"/>
<feGaussianBlur stdDeviation="2"/>
<feColorMatrix type="matrix" values="0 0 0 0 0 0 0 0 0 0 0 0 0 0 0 0 0 0 0.25 0"/>
<feBlend mode="normal" in2="BackgroundImageFix" result="effect1_dropShadow"/>
<feBlend mode="normal" in="SourceGraphic" in2="effect1_dropShadow" result="shape"/>
</filter>
<filter id="filter8_d" x="95.6631" y="225.293" width="10.7673" height="10.4102" filterUnits="userSpaceOnUse" color-interpolation-filters="sRGB">
<feFlood flood-opacity="0" result="BackgroundImageFix"/>
<feColorMatrix in="SourceAlpha" type="matrix" values="0 0 0 0 0 0 0 0 0 0 0 0 0 0 0 0 0 0 255 0"/>
<feOffset dy="4"/>
<feGaussianBlur stdDeviation="2"/>
<feColorMatrix type="matrix" values="0 0 0 0 0 0 0 0 0 0 0 0 0 0 0 0 0 0 0.25 0"/>
<feBlend mode="normal" in2="BackgroundImageFix" result="effect1_dropShadow"/>
<feBlend mode="normal" in="SourceGraphic" in2="effect1_dropShadow" result="shape"/>
</filter>
<filter id="filter9_d" x="95.71" y="122.652" width="15.5109" height="14.5688" filterUnits="userSpaceOnUse" color-interpolation-filters="sRGB">
<feFlood flood-opacity="0" result="BackgroundImageFix"/>
<feColorMatrix in="SourceAlpha" type="matrix" values="0 0 0 0 0 0 0 0 0 0 0 0 0 0 0 0 0 0 255 0"/>
<feOffset dy="4"/>
<feGaussianBlur stdDeviation="2"/>
<feColorMatrix type="matrix" values="0 0 0 0 0 0 0 0 0 0 0 0 0 0 0 0 0 0 0.25 0"/>
<feBlend mode="normal" in2="BackgroundImageFix" result="effect1_dropShadow"/>
<feBlend mode="normal" in="SourceGraphic" in2="effect1_dropShadow" result="shape"/>
</filter>
<filter id="filter10_d" x="84" y="133" width="51" height="35" filterUnits="userSpaceOnUse" color-interpolation-filters="sRGB">
<feFlood flood-opacity="0" result="BackgroundImageFix"/>
<feColorMatrix in="SourceAlpha" type="matrix" values="0 0 0 0 0 0 0 0 0 0 0 0 0 0 0 0 0 0 255 0"/>
<feOffset dy="4"/>
<feGaussianBlur stdDeviation="2"/>
<feColorMatrix type="matrix" values="0 0 0 0 0 0 0 0 0 0 0 0 0 0 0 0 0 0 0.25 0"/>
<feBlend mode="normal" in2="BackgroundImageFix" result="effect1_dropShadow"/>
<feBlend mode="normal" in="SourceGraphic" in2="effect1_dropShadow" result="shape"/>
</filter>
<filter id="filter11_d" x="108" y="122.652" width="15.5109" height="14.5688" filterUnits="userSpaceOnUse" color-interpolation-filters="sRGB">
<feFlood flood-opacity="0" result="BackgroundImageFix"/>
<feColorMatrix in="SourceAlpha" type="matrix" values="0 0 0 0 0 0 0 0 0 0 0 0 0 0 0 0 0 0 255 0"/>
<feOffset dy="4"/>
<feGaussianBlur stdDeviation="2"/>
<feColorMatrix type="matrix" values="0 0 0 0 0 0 0 0 0 0 0 0 0 0 0 0 0 0 0.25 0"/>
<feBlend mode="normal" in2="BackgroundImageFix" result="effect1_dropShadow"/>
<feBlend mode="normal" in="SourceGraphic" in2="effect1_dropShadow" result="shape"/>
</filter>
<filter id="filter12_d" x="83" y="158" width="53" height="10" filterUnits="userSpaceOnUse" color-interpolation-filters="sRGB">
<feFlood flood-opacity="0" result="BackgroundImageFix"/>
<feColorMatrix in="SourceAlpha" type="matrix" values="0 0 0 0 0 0 0 0 0 0 0 0 0 0 0 0 0 0 255 0"/>
<feOffset dy="4"/>
<feGaussianBlur stdDeviation="2"/>
<feColorMatrix type="matrix" values="0 0 0 0 0 0 0 0 0 0 0 0 0 0 0 0 0 0 0.25 0"/>
<feBlend mode="normal" in2="BackgroundImageFix" result="effect1_dropShadow"/>
<feBlend mode="normal" in="SourceGraphic" in2="effect1_dropShadow" result="shape"/>
</filter>
<filter id="filter13_d" x="20" y="160" width="201" height="11.7121" filterUnits="userSpaceOnUse" color-interpolation-filters="sRGB">
<feFlood flood-opacity="0" result="BackgroundImageFix"/>
<feColorMatrix in="SourceAlpha" type="matrix" values="0 0 0 0 0 0 0 0 0 0 0 0 0 0 0 0 0 0 255 0"/>
<feOffset dy="4"/>
<feGaussianBlur stdDeviation="2"/>
<feColorMatrix type="matrix" values="0 0 0 0 0 0 0 0 0 0 0 0 0 0 0 0 0 0 0.25 0"/>
<feBlend mode="normal" in2="BackgroundImageFix" result="effect1_dropShadow"/>
<feBlend mode="normal" in="SourceGraphic" in2="effect1_dropShadow" result="shape"/>
</filter>
<filter id="filter14_d" x="119" y="93" width="101" height="58" filterUnits="userSpaceOnUse" color-interpolation-filters="sRGB">
<feFlood flood-opacity="0" result="BackgroundImageFix"/>
<feColorMatrix in="SourceAlpha" type="matrix" values="0 0 0 0 0 0 0 0 0 0 0 0 0 0 0 0 0 0 255 0"/>
<feOffset dy="4"/>
<feGaussianBlur stdDeviation="2"/>
<feColorMatrix type="matrix" values="0 0 0 0 0 0 0 0 0 0 0 0 0 0 0 0 0 0 0.25 0"/>
<feBlend mode="normal" in2="BackgroundImageFix" result="effect1_dropShadow"/>
<feBlend mode="normal" in="SourceGraphic" in2="effect1_dropShadow" result="shape"/>
</filter>
<filter id="filter15_d" x="155" y="121" width="28" height="45" filterUnits="userSpaceOnUse" color-interpolation-filters="sRGB">
<feFlood flood-opacity="0" result="BackgroundImageFix"/>
<feColorMatrix in="SourceAlpha" type="matrix" values="0 0 0 0 0 0 0 0 0 0 0 0 0 0 0 0 0 0 255 0"/>
<feOffset dy="4"/>
<feGaussianBlur stdDeviation="2"/>
<feColorMatrix type="matrix" values="0 0 0 0 0 0 0 0 0 0 0 0 0 0 0 0 0 0 0.25 0"/>
<feBlend mode="normal" in2="BackgroundImageFix" result="effect1_dropShadow"/>
<feBlend mode="normal" in="SourceGraphic" in2="effect1_dropShadow" result="shape"/>
</filter>
<filter id="filter16_d" x="161" y="131" width="16" height="35" filterUnits="userSpaceOnUse" color-interpolation-filters="sRGB">
<feFlood flood-opacity="0" result="BackgroundImageFix"/>
<feColorMatrix in="SourceAlpha" type="matrix" values="0 0 0 0 0 0 0 0 0 0 0 0 0 0 0 0 0 0 255 0"/>
<feOffset dy="4"/>
<feGaussianBlur stdDeviation="2"/>
<feColorMatrix type="matrix" values="0 0 0 0 0 0 0 0 0 0 0 0 0 0 0 0 0 0 0.25 0"/>
<feBlend mode="normal" in2="BackgroundImageFix" result="effect1_dropShadow"/>
<feBlend mode="normal" in="SourceGraphic" in2="effect1_dropShadow" result="shape"/>
</filter>

<mask id="path27_ins" fill="white">
<ellipse cx="1.00142" cy="1.50541" rx="1.00142" ry="1.50541"/>
</mask>
<mask id="path28_ins" fill="white">
<ellipse cx="0.983745" cy="1.54862" rx="0.983745" ry="1.54862"/>
</mask>
<mask id="path30_ins" fill="white">
<ellipse cx="1.00142" cy="1.50541" rx="1.00142" ry="1.50541"/>
</mask>
<mask id="path31_ins" fill="white">
<ellipse cx="0.983745" cy="1.54862" rx="0.983745" ry="1.54862"/>
</mask>

</defs>
</svg>

