<svg width="1440" height="1024" viewBox="0 0 1440 1024" version="1.1" xmlns="http://www.w3.org/2000/svg" xmlns:xlink="http://www.w3.org/1999/xlink">
<title>back</title>
<desc>Created using Figma</desc>
<g id="Canvas" transform="translate(7799 -12173)">
<clipPath id="clip-0" clip-rule="evenodd">
<path d="M -7799 12173L -6359 12173L -6359 13197L -7799 13197L -7799 12173Z" fill="#FFFFFF"/>
</clipPath>
<g id="back" clip-path="url(#clip-0)">
<g id="Rectangle 17">
<mask id="mask0_outline_ins">
<use xlink:href="#path0_fill" fill="white" transform="translate(-6996 12370)"/>
</mask>
<g mask="url(#mask0_outline_ins)">
<use xlink:href="#path1_stroke_2x" transform="translate(-6996 12370)" fill="#00BA27" fill-opacity="0.6"/>
</g>
</g>
<g id="next">
<g id="Group">
<g id="Vector">
<use xlink:href="#path2_fill" transform="translate(-7079 12443)" fill="#00BA27" fill-opacity="0.4"/>
</g>
</g>
</g>
</g>
</g>
<defs>
<path id="path0_fill" d="M 0 0L 322 0L 322 322L 0 322L 0 0Z"/>
<path id="path1_stroke_2x" d="M 0 0L 0 -2L -2 -2L -2 0L 0 0ZM 322 0L 324 0L 324 -2L 322 -2L 322 0ZM 322 322L 322 324L 324 324L 324 322L 322 322ZM 0 322L -2 322L -2 324L 0 324L 0 322ZM 0 2L 322 2L 322 -2L 0 -2L 0 2ZM 320 0L 320 322L 324 322L 324 0L 320 0ZM 322 320L 0 320L 0 324L 322 324L 322 320ZM 2 322L 2 0L -2 0L -2 322L 2 322Z"/>
<path id="path2_fill" d="M 259.928 239.072L 24.1678 4.14848C 18.6168 -1.38283 9.71425 -1.38283 4.16325 4.14848C -1.38775 9.67978 -1.38775 18.5507 4.16325 24.082L 229.869 248.987L 4.16325 473.892C -1.38775 479.423 -1.38775 488.294 4.16325 493.825C 6.88638 496.539 10.5521 498 14.1132 498C 17.6742 498 21.3399 496.643 24.0631 493.825L 259.824 258.902C 265.375 253.475 265.375 244.499 259.928 239.072Z"/>
</defs>
</svg>
